/* XPM */
#pragma once

static xpm_row_t number0_20[] = {
/* columns rows colors chars-per-pixel */
"20 42 183 2 ",
"   c #000000",
".  c #0E0A03",
"X  c #0D0700",
"o  c #100300",
"O  c #1C0A01",
"+  c #140B00",
"@  c #1E1202",
"#  c #1E1A0C",
"$  c #220F04",
"%  c #271401",
"&  c #2B1606",
"*  c #331C07",
"=  c #3B2408",
"-  c #401900",
";  c #4D1800",
":  c #4F1300",
">  c #5A1B02",
",  c #531600",
"<  c #601B03",
"1  c #482F09",
"2  c #462D0E",
"3  c #552F00",
"4  c #563000",
"5  c #4C3611",
"6  c #5A3715",
"7  c #652304",
"8  c #6B2E07",
"9  c #732D07",
"0  c #673B02",
"q  c #703108",
"w  c #7B3B0C",
"e  c #683A18",
"r  c #743A19",
"t  c #723817",
"y  c #5A3D23",
"u  c #7A4400",
"i  c #774408",
"p  c #79471F",
"a  c #724D1E",
"s  c #76531F",
"d  c #7B4527",
"f  c #7C4729",
"g  c #724126",
"h  c #795721",
"j  c #864A00",
"k  c #8D4E00",
"l  c #85460B",
"z  c #904E00",
"x  c #925202",
"c  c #94590B",
"v  c #9B5C0B",
"b  c #874511",
"n  c #985717",
"m  c #A16A1B",
"M  c #A86A1A",
"N  c #A7711A",
"B  c #BA7C1B",
"V  c #844E22",
"C  c #88582B",
"Z  c #925F28",
"A  c #845236",
"S  c #885A36",
"D  c #896B2A",
"F  c #806127",
"G  c #93612A",
"H  c #966727",
"J  c #96673A",
"K  c #9E7B34",
"L  c #AD7B2C",
"P  c #AA7728",
"I  c #BD7E25",
"U  c #A27331",
"Y  c #A87C3E",
"T  c #C07C26",
"R  c #8E5F44",
"E  c #95664A",
"W  c #9F704C",
"Q  c #946653",
"!  c #9D7352",
"~  c #A4774A",
"^  c #A67C57",
"/  c #A27761",
"(  c #BB8829",
")  c #AB873A",
"_  c #B18639",
"`  c #BA933C",
"'  c #C2801C",
"]  c #C88A27",
"[  c #D38F2C",
"{  c #DA972B",
"}  c #C99C37",
"|  c #988458",
" . c #AD824C",
".. c #AE8D47",
"X. c #B78B48",
"o. c #B69941",
"O. c #AC845C",
"+. c #B68B58",
"@. c #A29557",
"#. c #BA9452",
"$. c #BEA145",
"%. c #AF8565",
"&. c #B18C6D",
"*. c #B78B63",
"=. c #A49065",
"-. c #B5946B",
";. c #BA9872",
":. c #C09740",
">. c #C19A42",
",. c #C69C5C",
"<. c #D19E54",
"1. c #C4AD4A",
"2. c #CFAA48",
"3. c #CAA54B",
"4. c #D1AC49",
"5. c #DEBD4F",
"6. c #D7B54D",
"7. c #C8A458",
"8. c #DBA75F",
"9. c #DFBD50",
"0. c #D5B45B",
"q. c #D1B653",
"w. c #C79965",
"e. c #C19B76",
"r. c #CEA16A",
"t. c #D4A667",
"y. c #CEA97C",
"u. c #EDCF57",
"i. c #EDCF58",
"p. c #E1C052",
"a. c #EED058",
"s. c #FBE05F",
"d. c #DCC171",
"f. c #E3C562",
"g. c #EBCD6B",
"h. c #EFD46A",
"j. c #F0D462",
"k. c #E4CA76",
"l. c #E7D67A",
"z. c #FBE160",
"x. c #FFE76C",
"c. c #FAE476",
"v. c #FEEA7B",
"b. c #C4A883",
"n. c #DCB781",
"m. c #C8BFB3",
"M. c #D7C78E",
"N. c #DBC49A",
"B. c #F1DD84",
"V. c #ECDB9C",
"C. c #FEE982",
"Z. c #FEEC89",
"A. c #F8E487",
"S. c #F3E293",
"D. c #FEEF96",
"F. c #F9EC9D",
"G. c #FEF097",
"H. c #FFF298",
"J. c #DFCEA9",
"K. c #DDD7B3",
"L. c #E6DCA4",
"P. c #E3DBAC",
"I. c #EEDFA8",
"U. c #EDDEA4",
"Y. c #E5DBB3",
"T. c #FCF1B4",
"R. c #FCF3BB",
"E. c #DAD9D7",
"W. c #E5D9C5",
"Q. c #FBF3C3",
"!. c #FBF4CB",
"~. c #F0E7D0",
"^. c #F3EED5",
"/. c #FAF4D3",
"(. c #FAF5DB",
"). c #F7F2D8",
"_. c #EDECE6",
"`. c #F7F5E7",
"'. c #FAF6E2",
"]. c #FAF8E7",
"[. c #F5F4ED",
"{. c #FCF9EA",
"}. c None",
/* pixels */
"}.}.}.}.}.}.}.}.}.}.}.}.}.}.}.}.}.}.}.}.",
"}.}.}.}.}.}.}.}.}.}.}.}.}.}.}.}.}.}.}.}.",
"}.}.}.}.}.}.}.}.}.E.[.[.[.[.[._.}.}.}.}.",
"}.}.}.}.}.}.}.}._.{.].].].].].].`.}.}.}.",
"}.}.}.}.}.}.}.m.].'.'.'.'.'.'.'.'.^.}.}.",
"}.}.}.}.}.}.y W.(.(.(.(.(.(.(.(.(.).}.}.",
"}.}.}.}.}.}.S ~././././././././././.}.}.",
"}.}.}.}.}.- E ^././././././././././.}.}.",
"}.}.}.}.}.; Q /.!.!.!.Y.&.J.!.!.!.!.K.}.",
"}.}.}.}.}.: / !.Q.Q.!.b.< &.!.Q.Q.Q.Y.}.",
"}.}.}.}.o > &.!.Q.Q.Q.;.7 %.Q.Q.Q.Q.P.}.",
"}.}.}.}.O 8 e.Q.R.R.R.-.9 *.Q.R.R.R.P.}.",
"}.}.}.}.$ b y.R.T.T.R.=.w w.R.T.T.T.L.}.",
"}.}.}.}.& n n.R.T.T.T.=.b w.R.T.T.T.L.}.",
"}.}.}.}.* M n.U.V.V.V.| n t.I.V.V.V.M.}.",
"}.}.}.  = I r.A f f f 6 M 8.R f f f g }.",
"}.}.}.  2 [ t.d r r r 6 I 8.A t r r e }.",
"}.}.}.  5 { ,.C V V V e ] <.J V V V p }.",
"}.}.}.  6 ' +.J G G G a B X.~ G G G C }.",
"}.}.}.  1 v O.Y U U U s c ~  .U U U H }.",
"}.}.}.  = l ^ X._ _ _ h i W #._ _ _ K }.",
"}.}.}.  * q ! 3.>.>.>.F 8 E 7.:.>.>.) }.",
"}.}.}.  % > ! 0.2.2.4.D > Q 0.2.2.4.` }.",
"}.}.}.  O > ~ f.5.9.p.K , O.f.9.9.9.$.}.",
"}.}.}.  O 7  .h.u.a.a.6.! N.j.i.i.a.1.}.",
"}.}.}.  O w ,.c.s.z.z.z.C.v.z.z.z.z.1.}.",
"}.}.}.  O H g.C.x.x.x.x.x.x.x.x.x.x.}.}.",
"}.}.}.  @ >.g.A.v.v.v.v.v.v.v.v.v.c.}.}.",
"}.}.}.  # q.6.k.Z.Z.Z.Z.Z.Z.Z.Z.Z.l.}.}.",
"}.}.}.  . o.} ` B.H.G.G.D.D.G.H.A.@.}.}.",
"}.}.}.}.  D ( m L d.S.F.F.F.S.k...}.}.}.",
"}.}.}.}.  5 N v k x m P L P m c }.}.}.}.",
"}.}.}.}.  . i x x x k k k z k 0 }.}.}.}.",
"}.}.}.}.}.  + 3 u j j j j u 4 }.}.}.}.}.",
"}.}.}.}.}.      . @ % % @ X }.}.}.}.}.}.",
"}.}.}.}.}.}.              }.}.}.}.}.}.}.",
"}.}.}.}.}.}.}.}.      }.}.}.}.}.}.}.}.}.",
"}.}.}.}.}.}.}.}.}.}.}.}.}.}.}.}.}.}.}.}.",
"}.}.}.}.}.}.}.}.}.}.}.}.}.}.}.}.}.}.}.}.",
"}.}.}.}.}.}.}.}.}.}.}.}.}.}.}.}.}.}.}.}.",
"}.}.}.}.}.}.}.}.}.}.}.}.}.}.}.}.}.}.}.}.",
"}.}.}.}.}.}.}.}.}.}.}.}.}.}.}.}.}.}.}.}."
};
