/* XPM */

#pragma once

static xpm_row_t number1_20[] = {
/* columns rows colors chars-per-pixel */
"20 42 153 2 ",
"   c #000000",
".  c #0A0401",
"X  c #0E0802",
"o  c #110C03",
"O  c #141007",
"+  c #161309",
"@  c #360E02",
"#  c #2A1703",
"$  c #351300",
"%  c #3B1303",
"&  c #321C00",
"*  c #3C2100",
"=  c #481802",
"-  c #5C1701",
";  c #581B03",
":  c #601C00",
">  c #462108",
",  c #4F2D0D",
"<  c #582105",
"1  c #512B0C",
"2  c #642404",
"3  c #622C08",
"4  c #692406",
"5  c #6C3C00",
"6  c #67350C",
"7  c #7A3A0B",
"8  c #7B360C",
"9  c #6C3117",
"0  c #6C3218",
"q  c #783F1B",
"w  c #7A4400",
"e  c #7A450A",
"r  c #78401C",
"t  c #784714",
"y  c #77422B",
"u  c #7D452F",
"i  c #7B4331",
"p  c #725744",
"a  c #8D4E00",
"s  c #824D06",
"d  c #915100",
"f  c #975906",
"g  c #91550D",
"h  c #874915",
"j  c #8E4913",
"k  c #8B5318",
"l  c #945319",
"z  c #9F5A1A",
"x  c #995417",
"c  c #9C641D",
"v  c #936417",
"b  c #AD6B10",
"n  c #AC671E",
"m  c #A97118",
"M  c #875224",
"N  c #9F5D21",
"B  c #854F33",
"V  c #855133",
"C  c #965E3B",
"Z  c #96642B",
"A  c #9D6521",
"S  c #916137",
"D  c #9F723E",
"F  c #A36020",
"G  c #A97526",
"H  c #A6772D",
"J  c #A9772A",
"K  c #B67D21",
"L  c #A46A3B",
"P  c #A57733",
"I  c #C07A24",
"U  c #A7812D",
"Y  c #BA8128",
"T  c #AD8A3A",
"R  c #B3893A",
"E  c #D48E2C",
"W  c #D69224",
"Q  c #C29331",
"!  c #E49E30",
"~  c #AD8345",
"^  c #B5844B",
"/  c #BC9947",
"(  c #AD896E",
")  c #B08C6F",
"_  c #BC976E",
"`  c #B28F70",
"'  c #B79370",
"]  c #BD9B74",
"[  c #C29B42",
"{  c #D1AC49",
"}  c #DCB64B",
"|  c #C9AF50",
" . c #C9A654",
".. c #DFBE51",
"X. c #D7B75B",
"o. c #E0BF51",
"O. c #C59F6D",
"+. c #CCAD7B",
"@. c #D6AE7A",
"#. c #CCB17C",
"$. c #D9B079",
"%. c #ECCB5C",
"&. c #EFD159",
"*. c #E5C761",
"=. c #F2D868",
"-. c #FCE261",
";. c #FEE66D",
":. c #FFE86D",
">. c #FEEA7B",
",. c #969494",
"<. c #D0AF89",
"1. c #D1B989",
"2. c #D9B98F",
"3. c #E0BD8A",
"4. c #DAC18B",
"5. c #DDC296",
"6. c #E6CF91",
"7. c #E0CA99",
"8. c #E1C291",
"9. c #E8D191",
"0. c #F1DE9A",
"q. c #FDEC87",
"w. c #FEEC88",
"e. c #FEEF95",
"r. c #F6E99A",
"t. c #F8EA9C",
"y. c #FEF096",
"u. c #F9EBA3",
"i. c #FFF3A1",
"p. c #F9EFB3",
"a. c #F9EFB9",
"s. c #FCF2B2",
"d. c #FBF2BC",
"f. c #D0CFCD",
"g. c #D4D3D2",
"h. c #F0E7CD",
"j. c #F3EAC8",
"k. c #FAF3C3",
"l. c #FAF3CB",
"z. c #E1E0DF",
"x. c #F1E8D1",
"c. c #F0EADE",
"v. c #FAF4D3",
"b. c #FAF5DB",
"n. c #EAE9E5",
"m. c #E9E8E6",
"M. c #F0EFEB",
"N. c #FAF6E2",
"B. c #FCF8E0",
"V. c #F9F7EF",
"C. c #FBF9EB",
"Z. c #FBFAF1",
"A. c None",
/* pixels */
"A.A.A.A.A.A.A.A.A.A.A.A.A.A.A.A.A.A.A.A.",
"A.A.A.A.A.A.A.A.A.A.A.A.A.g.z.m.n.M.A.A.",
"A.A.A.A.A.A.A.A.A.A.A.A.M.Z.C.C.C.C.A.A.",
"A.A.A.A.A.A.A.A.A.A.f.V.C.B.B.B.B.B.A.A.",
"A.A.A.A.A.A.A.A.,.n.C.B.b.b.b.b.b.b.A.A.",
"A.A.A.A.A.A.A.p c.B.b.b.b.b.b.b.b.b.A.A.",
"A.A.A.A.A.A.$ V x.v.v.v.v.v.v.v.v.v.A.A.",
"A.A.A.A.A.A.2 u h.l.l.l.l.l.l.l.l.l.A.A.",
"A.A.A.A.A.= : i h.l.l.l.l.l.l.l.l.l.A.A.",
"A.A.A.A.A.$ - B j.k.k.k.k.k.k.k.k.k.A.A.",
"A.A.A.A.A.@ 4 C j.a.4.7.k.d.d.d.d.d.A.A.",
"A.A.A.A.A.% 8 L 5.^ l <.k.d.d.d.d.a.A.A.",
"A.A.A.A.A.> j F N j x 2.d.s.s.s.s.p.A.A.",
"A.A.A.A.A.1 z l 6 h n 8.d.s.s.s.s.s.A.A.",
"A.A.A.A.A., t # X k I 3.1.#.#.#.#.#.A.A.",
"A.A.A.A.A.X .   X c E @.y 9 0 0 0 0 A.A.",
"A.A.A.A.A.      X G ! $.B q r r r r A.A.",
"A.A.A.A.A.      o Y W O.S M M M M M A.A.",
"A.A.A.A.A.A.    o K b _ D Z Z Z Z Z A.A.",
"A.A.A.A.A.A.    o g g ' ~ P P P P P A.A.",
"A.A.A.A.A.A.    X e 7 ) / R R R R R A.A.",
"A.A.A.A.A.A.    X 6 4 (  .[ [ [ [ [ A.A.",
"A.A.A.A.A.A.    . < - ` X.{ { { { { A.A.",
"A.A.A.A.A.A.A.  . = 2 ] *.o.o.o.o...A.A.",
"A.A.A.A.A.A.A.  . ; 7 +.=.&.&.&.&.&.A.A.",
"A.A.A.A.A.A.A.  . 3 A 9.;.-.-.-.-.-.A.A.",
"A.A.A.A.A.A.A.  . t { u.>.:.;.;.:.;.A.A.",
"A.A.A.A.A.A.A.  X T %.0.w.>.>.>.>.>.A.A.",
"A.A.A.A.A.A.A.  + | } 6.e.w.w.w.w.q.A.A.",
"A.A.A.A.A.A.A.  + / Q 4.i.e.y.y.y.e.A.A.",
"A.A.A.A.A.A.A.  O U m #.u.t.t.t.t.r.A.A.",
"A.A.A.A.A.A.A.  o v f c G G G G G H A.A.",
"A.A.A.A.A.A.A.  o s d a a a a a a A.A.A.",
"A.A.A.A.A.A.A.A.X w a a a a a a 5 A.A.A.",
"A.A.A.A.A.A.A.A.  # & & & & * * A.A.A.A.",
"A.A.A.A.A.A.A.A.A.A.      A.A.A.A.A.A.A.",
"A.A.A.A.A.A.A.A.A.A.A.A.A.A.A.A.A.A.A.A.",
"A.A.A.A.A.A.A.A.A.A.A.A.A.A.A.A.A.A.A.A.",
"A.A.A.A.A.A.A.A.A.A.A.A.A.A.A.A.A.A.A.A.",
"A.A.A.A.A.A.A.A.A.A.A.A.A.A.A.A.A.A.A.A.",
"A.A.A.A.A.A.A.A.A.A.A.A.A.A.A.A.A.A.A.A.",
"A.A.A.A.A.A.A.A.A.A.A.A.A.A.A.A.A.A.A.A."
};
