/* XPM */
#pragma once
static xpm_row_t number2_20[] = {
/* columns rows colors chars-per-pixel */
"20 42 163 2 ",
"   c #010000",
".  c #0C0600",
"X  c #0E0800",
"o  c #180901",
"O  c #120500",
"+  c #1E1003",
"@  c #131313",
"#  c #2D0D02",
"$  c #320F03",
"%  c #231401",
"&  c #2C1E08",
"*  c #391604",
"=  c #2E220E",
"-  c #3D2002",
";  c #32240F",
":  c #372F14",
">  c #3A3318",
",  c #4B1905",
"<  c #511702",
"1  c #5F1A03",
"2  c #521A00",
"3  c #621E06",
"4  c #5B2104",
"5  c #522F08",
"6  c #592D08",
"7  c #552503",
"8  c #5B321C",
"9  c #632204",
"0  c #682307",
"q  c #652108",
"w  c #6D2B08",
"e  c #68260C",
"r  c #68390A",
"t  c #693207",
"y  c #7D380D",
"u  c #733E01",
"i  c #6E3019",
"p  c #693E19",
"a  c #713116",
"s  c #753C1B",
"d  c #7A3E1C",
"f  c #4C3626",
"g  c #753D21",
"h  c #744100",
"j  c #7A4300",
"k  c #79400D",
"l  c #7E4827",
"z  c #7B5329",
"x  c #7D5A31",
"c  c #4B4B4B",
"v  c #844900",
"b  c #8B4F02",
"n  c #904F00",
"m  c #915001",
"M  c #955D0C",
"N  c #854917",
"B  c #8B531B",
"V  c #875619",
"C  c #955A1E",
"Z  c #9A6011",
"A  c #A9771F",
"S  c #854F22",
"D  c #865023",
"F  c #945220",
"G  c #945F23",
"H  c #855137",
"J  c #85533C",
"K  c #8D5A34",
"L  c #95632B",
"P  c #9A682A",
"I  c #9F713D",
"U  c #A5762A",
"Y  c #A47633",
"T  c #936141",
"R  c #A87B4B",
"E  c #817F7E",
"W  c #827B72",
"Q  c #B18638",
"!  c #B4883B",
"~  c #C19837",
"^  c #B38441",
"/  c #AE896A",
"(  c #B89776",
")  c #BBAF7B",
"_  c #C39B42",
"`  c #CCAC49",
"'  c #D2AE49",
"]  c #D4B34D",
"[  c #C7A15A",
"{  c #CDAC69",
"}  c #D7BA6D",
"|  c #DABA6C",
" . c #C3A476",
".. c #E1C151",
"X. c #E8CC57",
"o. c #F1D359",
"O. c #E4C971",
"+. c #ECD27D",
"@. c #F2D976",
"#. c #FDE362",
"$. c #FBE46D",
"%. c #FFE86F",
"&. c #FBE472",
"*. c #FFE874",
"=. c #FEEA7D",
"-. c #F7E379",
";. c #B99B80",
":. c #B49480",
">. c #A29D98",
",. c #BEA68A",
"<. c #B9A399",
"1. c #BCB7A0",
"2. c #BEB5AC",
"3. c #C1A180",
"4. c #C8AB88",
"5. c #CCAC87",
"6. c #C7B782",
"7. c #CFB89E",
"8. c #D4BB9A",
"9. c #C5BFA6",
"0. c #EFD781",
"q. c #EDDA8D",
"w. c #E5D389",
"e. c #E2CE92",
"r. c #EBD997",
"t. c #F6E586",
"y. c #FEED8B",
"u. c #FAEB96",
"i. c #FEF19A",
"p. c #CFC9AE",
"a. c #D9D3B7",
"s. c #E3CDAA",
"d. c #E7DDA3",
"f. c #E4D3AD",
"g. c #ECE2AB",
"h. c #FCF0A8",
"j. c #EFE6B2",
"k. c #EFE4BD",
"l. c #F0E9BB",
"z. c #FCF2B4",
"x. c #FBF2BB",
"c. c #D7D6D4",
"v. c #E5DCC1",
"b. c #E9DDC5",
"n. c #E7E2C5",
"m. c #EDE7C5",
"M. c #ECE0C9",
"N. c #F0E9C2",
"B. c #FBF3C3",
"V. c #FBF4CB",
"C. c #EDE4D4",
"Z. c #FBF5D4",
"A. c #FDF8D4",
"S. c #FAF5DB",
"D. c #F4F0DB",
"F. c #E7E7E3",
"G. c #ECECE6",
"H. c #F0EFEA",
"J. c #FAF6E3",
"K. c #FAF8E7",
"L. c #F5F4EE",
"P. c #FBF9EA",
"I. c None",
/* pixels */
"I.I.I.I.I.I.I.I.I.I.I.I.I.I.I.I.I.I.I.I.",
"I.I.I.I.I.I.I.I.I.I.I.I.I.I.I.I.I.I.I.I.",
"I.I.I.I.I.I.I.I.c.F.H.L.L.L.L.G.I.I.I.I.",
"I.I.I.I.I.I.x C.P.P.K.K.K.K.K.P.K.I.I.I.",
"I.I.I.I.I.I.G M.J.J.J.J.J.J.J.J.J.D.I.I.",
"I.I.I.I.I.u C b.S.S.S.S.S.S.S.S.S.S.I.I.",
"I.I.I.I.I.j B b.Z.Z.Z.Z.Z.Z.Z.Z.Z.Z.n.I.",
"I.I.I.I.I.t d v.A.A.A.A.A.Z.Z.Z.Z.Z.m.I.",
"I.I.I.I.I.4 i 7.8.3.( / ( k.V.V.V.V.N.I.",
"I.I.I.I.I.< q a e 3 1 1 q 4.V.B.B.B.l.I.",
"I.I.I.I.I.< 0 q 3 3 3 3 w 3.B.B.B.B.l.I.",
"I.I.I.I.I., , * $ # $ 4 y 5.B.x.x.x.j.I.",
"I.I.I.I.I.            * F s.x.z.z.z.g.I.",
"I.I.I.I.I.            f 8.V.z.z.z.z.d.I.",
"I.I.I.I.I.I.        c 2.f.e.e.e.e.e.6.I.",
"I.I.I.I.I.I.    @ E <.J g g g g g g 8 I.",
"I.I.I.I.I.I.  @ >.:.l s s s s s s s I.I.",
"I.I.I.I.I.I.  W ( D D D D D D D D p I.I.",
"I.I.I.I.I.I.; ,.I L L L L L L L V I.I.I.",
"I.I.I.I.I.I.z  .Y Y Y Y Y Y P B 5 I.I.I.",
"I.I.I.I.I.- K  .Q ! ! ! Q G N r I.I.I.I.",
"I.I.I.I.I.7 H { _ _ _ _ B w 6 I.I.I.I.I.",
"I.I.I.I.I.2 J } ' ' ' _ t $   I.I.I.I.I.",
"I.I.I.I.. < T O.......` =     I.I.I.I.I.",
"I.I.I.I.O 9 R @.o.o.o.X.) 1.9.p.a.v.v.I.",
"I.I.I.I.o k { =.#.#.#.#.%.*.*.*.*.*.&.I.",
"I.I.I.I.+ U 0.y.%.%.%.%.%.%.%.%.%.%.$.I.",
"I.I.I.I.= ] +.u.=.=.=.=.=.=.=.=.=.=.-.I.",
"I.I.I.  > ] | i.y.y.y.y.y.y.y.y.y.y.t.I.",
"I.I.I.  : ~ [ h.i.i.i.i.i.i.i.i.i.i.u.I.",
"I.I.I.  ; A ^ r.q.q.q.q.q.q.q.q.q.q.w.I.",
"I.I.I.I.& M m M Z Z Z Z Z Z Z Z Z Z V I.",
"I.I.I.I.% b m m m m m m m m n n m v I.I.",
"I.I.I.I.% h j j j j j j j j j j v I.I.I.",
"I.I.I.I.  . . . . . . . . . . I.I.I.I.I.",
"I.I.I.I.I.                  I.I.I.I.I.I.",
"I.I.I.I.I.I.I.          I.I.I.I.I.I.I.I.",
"I.I.I.I.I.I.I.I.I.I.I.I.I.I.I.I.I.I.I.I.",
"I.I.I.I.I.I.I.I.I.I.I.I.I.I.I.I.I.I.I.I.",
"I.I.I.I.I.I.I.I.I.I.I.I.I.I.I.I.I.I.I.I.",
"I.I.I.I.I.I.I.I.I.I.I.I.I.I.I.I.I.I.I.I.",
"I.I.I.I.I.I.I.I.I.I.I.I.I.I.I.I.I.I.I.I."
};
