/* XPM */
#pragma once
static xpm_row_t number3_20[] = {
/* columns rows colors chars-per-pixel */
"20 42 174 2 ",
"   c #010000",
".  c #0B0600",
"X  c #060809",
"o  c #0D0906",
"O  c #130C02",
"+  c #190E00",
"@  c #1D1101",
"#  c #260B02",
"$  c #2D0C02",
"%  c #370F01",
"&  c #2B1B08",
"*  c #321001",
"=  c #3C1C04",
"-  c #361702",
";  c #3B2E20",
":  c #4A1805",
">  c #5E1903",
",  c #5C1702",
"<  c #621D04",
"1  c #601F08",
"2  c #482304",
"3  c #422006",
"4  c #532E01",
"5  c #543204",
"6  c #5B3F16",
"7  c #66260B",
"8  c #662509",
"9  c #712E00",
"0  c #653800",
"q  c #6C3A00",
"w  c #73390D",
"e  c #793A0B",
"r  c #753509",
"t  c #623113",
"y  c #733A19",
"u  c #743617",
"i  c #774200",
"p  c #7E430B",
"a  c #7B4400",
"s  c #684512",
"d  c #7B411C",
"f  c #644724",
"g  c #7A4427",
"h  c #7C4628",
"j  c #755B23",
"k  c #64635F",
"l  c #74726A",
"z  c #813F00",
"x  c #844700",
"c  c #854A00",
"v  c #8E4E00",
"b  c #904F00",
"n  c #8D5205",
"m  c #925201",
"M  c #9B5F0D",
"N  c #965E0D",
"B  c #89481C",
"V  c #8E581F",
"C  c #965B1E",
"Z  c #9B6011",
"A  c #A26B1D",
"S  c #B07B1F",
"D  c #844E22",
"F  c #8E5820",
"G  c #8E582B",
"H  c #935F25",
"J  c #8D652B",
"K  c #93612A",
"L  c #97683E",
"P  c #867231",
"I  c #9E7830",
"U  c #907E3A",
"Y  c #A77324",
"T  c #AD7321",
"R  c #B57B2C",
"E  c #A56A3B",
"W  c #A27331",
"Q  c #A57835",
"!  c #9D7040",
"~  c #856A56",
"^  c #966A57",
"/  c #A87C42",
"(  c #A87D5B",
")  c #BB8020",
"_  c #B2863A",
"`  c #B68F3C",
"'  c #B8923E",
"]  c #C08427",
"[  c #C99D38",
"{  c #D99D3D",
"}  c #AB835C",
"|  c #A39151",
" . c #8F836E",
".. c #8C897B",
"X. c #A98163",
"o. c #AC876D",
"O. c #B18B62",
"+. c #B18C6E",
"@. c #B9966E",
"#. c #BD9D7C",
"$. c #C19942",
"%. c #D69944",
"&. c #CFAB49",
"*. c #C8A446",
"=. c #D0AB49",
"-. c #D5B34E",
";. c #CEAB5D",
":. c #C0B05B",
">. c #DFBE50",
",. c #E7AA49",
"<. c #E1BE51",
"1. c #C09C70",
"2. c #D2B160",
"3. c #CCAF7F",
"4. c #D9BD7F",
"5. c #E2C355",
"6. c #EDD159",
"7. c #E2CE60",
"8. c #E0C777",
"9. c #F0DE7F",
"0. c #FCE160",
"q. c #FFE76B",
"w. c #FFE86D",
"e. c #FEEA7B",
"r. c #FFE976",
"t. c #B79680",
"y. c #ADA892",
"u. c #B8B1A1",
"i. c #C1A685",
"p. c #D1B999",
"a. c #C1BFAE",
"s. c #DFC584",
"d. c #D7CB94",
"f. c #E5CD88",
"g. c #ECD888",
"h. c #EAD99B",
"j. c #F2DE92",
"k. c #FFEB84",
"l. c #FEEC89",
"z. c #F3E087",
"x. c #F5E495",
"c. c #FFEF92",
"v. c #F7E99A",
"b. c #FEF097",
"n. c #FFF198",
"m. c #DAC9AB",
"M. c #EDDCA1",
"N. c #E3D0AC",
"B. c #E3DAA9",
"V. c #F0DCAD",
"C. c #F9EEAF",
"Z. c #FFF4A1",
"A. c #EDE2BB",
"S. c #E9E1B3",
"D. c #FCF1B4",
"F. c #FBF2BC",
"G. c #CBCAC9",
"H. c #E8DEC1",
"J. c #EBE5C1",
"K. c #F5EDC5",
"L. c #FBF3C3",
"P. c #FAF4CB",
"I. c #E3E2DE",
"U. c #F2EEDA",
"Y. c #FAF5D4",
"T. c #FAF5DB",
"R. c #FDF9D7",
"E. c #EEEDE9",
"W. c #FAF6E3",
"Q. c #FBF8E3",
"!. c #F5F4ED",
"~. c #FBF9EA",
"^. c #F5F3E6",
"/. c None",
/* pixels */
"/./././././././././././././././././././.",
"/./././././././././././././././././././.",
"/././././././.G.I.E.!.!.!.!.!.I././././.",
"/./././././.i.~.~.~.Q.Q.Q.Q.Q.~.^./././.",
"/././././.q 1.Q.W.W.W.W.W.W.W.W.W.U././.",
"/././././.x @.Q.T.T.T.T.T.T.T.T.T.T././.",
"/./././.4 z +.T.Y.Y.Y.Y.Y.Y.Y.Y.Y.Y.H./.",
"/./././.2 9 o.R.Y.Y.Y.Y.Y.Y.Y.Y.Y.Y.J./.",
"/./././.= < ^ p.#.+.X.X.i.K.P.P.P.P.J./.",
"/./././.* > 7 7 < > , , u N.P.L.L.L.A./.",
"/./././.$ < 8 < > > < < u m.L.L.L.L.S./.",
"/./././.# : % $ # # * 8 B N.F.F.F.F.B./.",
"/./././.          X o t E A.D.D.D.D.d./.",
"/././././.      ; u.a.m.H.L.D.D.D.C././.",
"/././././.    O I V.M.M.M.h.h.h.h.d././.",
"/././././.    s %.X.g g g g g h G f /./.",
"/././././.  O T ,.( u y y y y d ! /././.",
"/./././././.O ] { } D D D D D D L ~ /./.",
"/./././././.@ ) R O.K K K K K K K K /./.",
"/./././././.O N C L F F H W W W W W J /.",
"/./././././.O p p e e e w / _ _ _ _ Q /.",
"/./././././.. w e e e r 7 O.$.$.$.$.' /.",
"/./././././.. = 3 = 2 8 1 @.-.&.&.&.*./.",
"/./././././.          % 7 3.5.>.>.>.-./.",
"/././././..  .y...l k ~ t.h.6.6.6.6.5./.",
"/././././.6 s.e.e.k.l.l.l.q.0.0.0.0.6./.",
"/./././.& ` x.r.q.q.q.q.q.q.q.q.w.w.7./.",
"/./././.j 5.j.k.e.e.e.e.e.e.e.e.e.e.:./.",
"/./././.U <.f.c.l.l.l.l.l.l.l.l.l.9././.",
"/./././.P [ 4.Z.n.n.b.b.b.b.n.n.z.| /./.",
"/./././.j T Q ;.8.g.x.v.v.x.g.2.I /././.",
"/./././.s M v b m Z A Y Y A M n /./././.",
"/./././.5 m m m m b v v b b c 5 /./././.",
"/./././.@ 4 0 i x c c c a 0 - /././././.",
"/././././.    . O @ @ + . /././././././.",
"/././././.              /./././././././.",
"/././././././.      /./././././././././.",
"/./././././././././././././././././././.",
"/./././././././././././././././././././.",
"/./././././././././././././././././././.",
"/./././././././././././././././././././.",
"/./././././././././././././././././././."
};
