/* XPM */
#pragma once
static xpm_row_t number4_20[] = {
/* columns rows colors chars-per-pixel */
"20 42 167 2 ",
"   c #000000",
".  c #0C0501",
"X  c #0C0A05",
"o  c #1B1101",
"O  c #260C00",
"+  c #261500",
"@  c #2C1902",
"#  c #3B1700",
"$  c #341D00",
"%  c #3E1D04",
"&  c #2C2009",
"*  c #30260F",
"=  c #3B2309",
"-  c #3C3317",
";  c #441401",
":  c #461902",
">  c #501A07",
",  c #472005",
"<  c #4D2B00",
"1  c #552505",
"2  c #58390E",
"3  c #5A2E15",
"4  c #543315",
"5  c #713D02",
"6  c #6F3E11",
"7  c #6D341B",
"8  c #6B3819",
"9  c #67331B",
"0  c #70361C",
"q  c #743B1C",
"w  c #783E1C",
"e  c #7D4400",
"r  c #6E4313",
"t  c #77481F",
"y  c #5F573C",
"u  c #614521",
"i  c #7A5C28",
"p  c #854A00",
"a  c #8D4E00",
"s  c #834B0F",
"d  c #904F00",
"f  c #8C5003",
"g  c #80571B",
"h  c #875C18",
"j  c #98600F",
"k  c #9B6519",
"l  c #854F22",
"z  c #884E24",
"x  c #865123",
"c  c #885529",
"v  c #89592A",
"b  c #935F20",
"n  c #855335",
"m  c #94622A",
"M  c #9B6426",
"N  c #96613E",
"B  c #9C6D39",
"V  c #997A34",
"C  c #A97627",
"Z  c #A97629",
"A  c #AB7B28",
"S  c #A37532",
"D  c #A57835",
"F  c #AA7836",
"G  c #846946",
"H  c #966847",
"J  c #966A53",
"K  c #9B7F5F",
"L  c #A07659",
"P  c #93813C",
"I  c #B3883B",
"U  c #C49C3A",
"Y  c #AC8347",
"T  c #BF9841",
"R  c #B38C54",
"E  c #BD9354",
"W  c #BDA850",
"Q  c #BC8F66",
"!  c #B28B6F",
"~  c #B19160",
"^  c #BB986B",
"/  c #A98370",
"(  c #A69E74",
")  c #BB9972",
"_  c #C48D43",
"`  c #C29A42",
"'  c #CDA948",
"]  c #D1AC49",
"[  c #D8B14E",
"{  c #C2AD52",
"}  c #DEAB5E",
"|  c #CAB455",
" . c #DCBB50",
".. c #E0BF51",
"X. c #C5A062",
"o. c #C2A069",
"O. c #CAA76C",
"+. c #D7AC6C",
"@. c #CAA77E",
"#. c #C4A277",
"$. c #C9BE77",
"%. c #C7BC7D",
"&. c #D8B676",
"*. c #DBC35C",
"=. c #E7C856",
"-. c #EFD158",
";. c #F4DA5F",
":. c #D1C26E",
">. c #F6D965",
",. c #FADF61",
"<. c #F6DC69",
"1. c #F9DE69",
"2. c #E2C77D",
"3. c #E5CB7A",
"4. c #F5DD7D",
"5. c #FBE161",
"6. c #FEE66C",
"7. c #FFE86D",
"8. c #FFE974",
"9. c #FEEA7B",
"0. c #FAE37F",
"q. c #BCB693",
"w. c #CEB68D",
"e. c #DBBA8C",
"r. c #C9AE99",
"t. c #CFBB9C",
"y. c #D4BC99",
"u. c #D7C289",
"i. c #DBC58C",
"p. c #DCC797",
"a. c #D1C897",
"s. c #F0DA89",
"d. c #E1C59B",
"f. c #FEEC87",
"g. c #FFED88",
"h. c #FEEF94",
"j. c #F8EB9C",
"k. c #FEF097",
"l. c #C8C3B6",
"z. c #DECAB1",
"x. c #DED7B3",
"c. c #E3D0AD",
"v. c #E5D4B6",
"b. c #EBE1AE",
"n. c #F9ECA5",
"m. c #FEF1A0",
"M. c #F6EEBC",
"N. c #FCF2B3",
"B. c #FCF3BC",
"V. c #EFE9C6",
"C. c #EBE0CA",
"Z. c #F5EAC4",
"A. c #FBF3C3",
"S. c #FBF4CC",
"D. c #E8E6D9",
"F. c #ECE8D2",
"G. c #F7F1D3",
"H. c #FBF5D4",
"J. c #F5F1DF",
"K. c #FAF5DC",
"L. c #FCF8DE",
"P. c #F0EFE0",
"I. c #F6F1E6",
"U. c #FAF6E5",
"Y. c #FAF9EE",
"T. c #FCF9E5",
"R. c None",
/* pixels */
"R.R.R.R.R.R.R.R.R.R.R.R.R.R.R.R.R.R.R.R.",
"R.R.R.R.R.R.R.R.R.R.R.R.R.R.R.R.R.R.R.R.",
"R.R.R.R.R.R.R.R.R.K I.Y.Y.Y.Y.R.R.R.R.R.",
"R.R.R.R.R.R.R.R.R.^ U.U.U.U.J.R.R.R.R.R.",
"R.R.R.R.R.R.R.R.5 w.T.L.L.L.F.R.R.R.R.R.",
"R.R.R.R.R.R.R.R.s z.L.K.K.K.R.R.R.R.R.R.",
"R.R.R.R.R.R.R.R.c C.H.H.H.G.R.R.R.R.R.R.",
"R.R.R.R.R.R.R.# H G.S.S.H.V.R.R.R.R.R.R.",
"R.R.R.R.R.R.R.; / H.S.S.S.x.R.R.R.R.R.R.",
"R.R.R.R.R.R.R.> r.S.A.A.A.q.R.R.R.R.R.R.",
"R.R.R.R.R.R.. 7 v.A.B.A.M.R.R.R.R.R.R.R.",
"R.R.R.R.R.R.O N Z.B.B.B.b.R.R.R.R.R.R.R.",
"R.R.R.R.R.R., Q A.N.N.N.a.R.R.R.R.R.R.R.",
"R.R.R.R.R.  6 e.B.N.N.N.( R.l.D.P.R.R.R.",
"R.R.R.R.R.. M d.i.i.i.u.y G c.p.p.w.R.R.",
"R.R.R.R.R.@ _ ! 7 0 0 9 = O.J 7 0 9 R.R.",
"R.R.R.R.R.2 } L q w w 3 g &.n w w 8 R.R.",
"R.R.R.R.R.h +.H l x x 4 A @.c x x t R.R.",
"R.R.R.R.. k #.B m m m u E ) m m m v R.R.",
"R.R.R.R.o b #.D S S S ~ y.R S S S Y t.R.",
"R.R.R.R.@ l ^ I I I I I I I I I I I I R.",
"R.R.R.R.% q o.` ` ` ` ` ` ` ` ` ` ` T R.",
"R.R.R.R.: 7 O.] ] ] ] ] ] ] ] ] ] ] ' R.",
"R.R.R.  ; q &............... ....... .R.",
"R.R.R.  : z 3.-.-.-.-.-.-.-.-.-.-.-.-.R.",
"R.R.R.  1 F 4.,.,.,.,.,.5.5.5.5.5.5.;.R.",
"R.R.R.  r [ 1.<.<.<.<.<.0.8.7.7.7.6.*.R.",
"R.R.R.  V >.1.1.1.1.1.>.s.f.9.9.9.<.R.R.",
"R.R.R.R.P | { { { W | =.2.h.g.g.g.:.R.R.",
"R.R.R.R.X X X X X . - U &.m.h.k.k.$.R.R.",
"R.R.R.R.R.          * A X.n.j.j.j.%.R.R.",
"R.R.R.R.R.R.        @ j k Z C C Z i R.R.",
"R.R.R.R.R.R.R.      @ f d a a a e R.R.R.",
"R.R.R.R.R.R.R.R.    + p a a a a < R.R.R.",
"R.R.R.R.R.R.R.R.R.  . @ @ @ $ $ R.R.R.R.",
"R.R.R.R.R.R.R.R.R.R.        R.R.R.R.R.R.",
"R.R.R.R.R.R.R.R.R.R.R.R.R.R.R.R.R.R.R.R.",
"R.R.R.R.R.R.R.R.R.R.R.R.R.R.R.R.R.R.R.R.",
"R.R.R.R.R.R.R.R.R.R.R.R.R.R.R.R.R.R.R.R.",
"R.R.R.R.R.R.R.R.R.R.R.R.R.R.R.R.R.R.R.R.",
"R.R.R.R.R.R.R.R.R.R.R.R.R.R.R.R.R.R.R.R.",
"R.R.R.R.R.R.R.R.R.R.R.R.R.R.R.R.R.R.R.R."
};

