/* XPM */
#pragma once
static xpm_row_t number5_20[] = {
/* columns rows colors chars-per-pixel */
"20 42 167 2 ",
"   c #010000",
".  c #0C0401",
"X  c #0E0801",
"o  c #100600",
"O  c #140B02",
"+  c #1B1205",
"@  c #2E0C00",
"#  c #221402",
"$  c #2E1B02",
"%  c #34250C",
"&  c #3E3113",
"*  c #4A1908",
"=  c #481504",
"-  c #541600",
";  c #541904",
":  c #621D05",
">  c #4A2900",
",  c #482505",
"<  c #5F350A",
"1  c #473E1C",
"2  c #612304",
"3  c #66240B",
"4  c #6E2E0A",
"5  c #663900",
"6  c #6B3B0C",
"7  c #64380B",
"8  c #713906",
"9  c #6F3415",
"0  c #713718",
"q  c #774200",
"w  c #7E4600",
"e  c #7F420D",
"r  c #7E4010",
"t  c #78461F",
"y  c #7C442F",
"u  c #7F4632",
"i  c #5E5242",
"p  c #696863",
"a  c #7E6A60",
"s  c #77756D",
"d  c #824500",
"f  c #854B01",
"g  c #8E4E00",
"h  c #8C4D0F",
"j  c #844C0B",
"k  c #904F00",
"l  c #8F500F",
"z  c #8D5103",
"x  c #915101",
"c  c #90510F",
"v  c #8C4F12",
"b  c #814718",
"n  c #8E5010",
"m  c #8F541A",
"M  c #925515",
"N  c #9A5F10",
"B  c #9D630F",
"V  c #9B6211",
"C  c #A2681C",
"Z  c #824C22",
"A  c #8E5923",
"S  c #915F29",
"D  c #864F30",
"F  c #865433",
"G  c #8C5436",
"H  c #945E30",
"J  c #896627",
"K  c #996C2E",
"L  c #9D6837",
"P  c #A56F21",
"I  c #A97427",
"U  c #B37622",
"Y  c #A26C31",
"T  c #A17131",
"R  c #A77E36",
"E  c #A07038",
"W  c #B77F34",
"Q  c #9A6C4F",
"!  c #AB7340",
"~  c #A47A51",
"^  c #B28327",
"/  c #B0853A",
"(  c #B58F3D",
")  c #C18424",
"_  c #CAA33E",
"`  c #BA8245",
"'  c #BF9640",
"]  c #AB8257",
"[  c #8F8B7C",
"{  c #AA8362",
"}  c #B28E6A",
"|  c #AD946E",
" . c #BD9F64",
".. c #B99770",
"X. c #BA9A76",
"o. c #C59A48",
"O. c #D79D4D",
"+. c #CEAA49",
"@. c #DAA147",
"#. c #D7BB4F",
"$. c #C8A358",
"%. c #D1AF5E",
"&. c #D2AF51",
"*. c #C4B252",
"=. c #DDBC50",
"-. c #E5AB51",
";. c #CCA860",
":. c #C9AB7E",
">. c #D8C152",
",. c #E0C056",
"<. c #EDCF58",
"1. c #FBE05F",
"2. c #DEC272",
"3. c #DECD74",
"4. c #EBD17E",
"5. c #FBE060",
"6. c #FFE66A",
"7. c #FEEA79",
"8. c #F9E577",
"9. c #B89884",
"0. c #A8A497",
"q. c #BCB9AE",
"w. c #C9B594",
"e. c #D2BB98",
"r. c #C0BDB0",
"t. c #CEC69B",
"y. c #DED198",
"u. c #EBD788",
"i. c #EBD884",
"p. c #F0D781",
"a. c #EEDA99",
"s. c #FEEC87",
"d. c #FEEB8B",
"f. c #FEEF96",
"g. c #F6E798",
"h. c #FAEB9B",
"j. c #F4E495",
"k. c #FFF197",
"l. c #E9DBB6",
"z. c #F3E4A4",
"x. c #FDF1A6",
"c. c #EEE6BB",
"v. c #F5E8B7",
"b. c #FCF1B4",
"n. c #FDF4BC",
"m. c #EFEACD",
"M. c #F1E7C6",
"N. c #F4E9C1",
"B. c #F0E7CB",
"V. c #F0EBC9",
"C. c #FBF3C4",
"Z. c #FBF5CC",
"A. c #E9E4DC",
"S. c #F1EAD3",
"D. c #F3EDDA",
"F. c #FBF5D5",
"G. c #FAF6DC",
"H. c #FDF8D5",
"J. c #EFEEE9",
"K. c #F0EFEA",
"L. c #FAF6E1",
"P. c #F3F2ED",
"I. c #FAF7E8",
"U. c #FAF8E8",
"Y. c #F3F1E1",
"T. c #F7F6F0",
"R. c None",
/* pixels */
"R.R.R.R.R.R.R.R.R.R.R.R.R.R.R.R.R.R.R.R.",
"R.R.R.R.R.R.R.R.R.R.R.R.R.R.R.R.R.R.R.R.",
"R.R.R.R.R.R.R.A.J.J.J.J.J.K.P.P.T.P.R.R.",
"R.R.R.R.R.R.E D.I.I.I.I.I.I.I.I.I.Y.R.R.",
"R.R.R.R.R.8 Y D.L.L.L.L.L.L.L.L.L.D.R.R.",
"R.R.R.R.R.f Y S.G.G.G.G.G.G.G.G.G.S.R.R.",
"R.R.R.R.R.d H S.F.F.F.F.F.F.F.F.F.m.R.R.",
"R.R.R.R.R.8 D B.F.F.F.F.H.H.H.H.H.V.R.R.",
"R.R.R.R.O 2 y B.Z.Z.Z.l.e.e.e.e.e.w.R.R.",
"R.R.R.R.o - y M.C.C.Z.X.3 3 3 3 3 R.R.R.",
"R.R.R.R.. - G N.C.C.C...: : : : ; R.R.R.",
"R.R.R.R.. 2 L N.n.n.n.| = * * = R.R.R.R.",
"R.R.R.  X 4 ! v.b.b.b.t.0.q.r.0.R.R.R.R.",
"R.R.R.  o b ` v.b.b.b.b.n.n.n.n.c.R.R.R.",
"R.R.R.  O M o.v.z.z.z.z.z.z.z.z.z.y.R.R.",
"R.R.R.  O C O.{ F F F F F F F F F F R.R.",
"R.R.R.  + U -.Q 9 0 0 0 0 0 0 0 0 0 R.R.",
"R.R.R.  + ) @.~ b Z Z Z Z Z Z Z Z Z t R.",
"R.R.R.  # ) W ~ A A A A A S S S S S A R.",
"R.R.R.R.+ B M m v n n v v L T T T T K R.",
"R.R.R.R.O j h v l c l h r ] / / / / R R.",
"R.R.R.R.o 6 6 7 7 < 6 e 4 { o.' ' ' ( R.",
"R.R.R.R.  X .       . , 2 } &.+.+.+.o.R.",
"R.R.R.R.              @ 3 :.,.=.=.=.+.R.",
"R.R.R.R.    i 0.[ s p a 9.a.<.<.<.<.#.R.",
"R.R.R.R.R.#  .d.7.s.d.d.s.6.1.5.5.5.>.R.",
"R.R.R.R.. J 4.s.6.6.6.6.6.6.6.6.6.6.*.R.",
"R.R.R.R.% +.p.d.7.7.7.7.7.7.7.7.7.8.R.R.",
"R.R.R.R.1 =.2.f.s.s.s.s.s.s.s.s.s.3.R.R.",
"R.R.R.R.1 _ %.x.k.k.k.k.k.k.k.k.i.R.R.R.",
"R.R.R.R.& ^ I $.2.u.j.h.h.g.u.%.J R.R.R.",
"R.R.R.R.% V x g x N C I I P V j R.R.R.R.",
"R.R.R.R.$ z x x x k g g g k f , R.R.R.R.",
"R.R.R.R.X > 5 q d f f f w 5 $ R.R.R.R.R.",
"R.R.R.R.R.    . O # # # o R.R.R.R.R.R.R.",
"R.R.R.R.R.R.            R.R.R.R.R.R.R.R.",
"R.R.R.R.R.R.R.      R.R.R.R.R.R.R.R.R.R.",
"R.R.R.R.R.R.R.R.R.R.R.R.R.R.R.R.R.R.R.R.",
"R.R.R.R.R.R.R.R.R.R.R.R.R.R.R.R.R.R.R.R.",
"R.R.R.R.R.R.R.R.R.R.R.R.R.R.R.R.R.R.R.R.",
"R.R.R.R.R.R.R.R.R.R.R.R.R.R.R.R.R.R.R.R.",
"R.R.R.R.R.R.R.R.R.R.R.R.R.R.R.R.R.R.R.R."
};
