/* XPM */
#pragma once
static xpm_row_t number6_20[] = {
/* columns rows colors chars-per-pixel */
"20 42 177 2 ",
"   c #000000",
".  c #0C0500",
"X  c #0F0D06",
"o  c #1B0A02",
"O  c #170F05",
"+  c #1C1204",
"@  c #2B0B00",
"#  c #240700",
"$  c #390D00",
"%  c #241402",
"&  c #291402",
"*  c #361805",
"=  c #3D2302",
"-  c #3E230B",
";  c #222325",
":  c #4D1501",
">  c #441301",
",  c #5D1A02",
"<  c #561B02",
"1  c #611D05",
"2  c #4B2E09",
"3  c #532E00",
"4  c #4B3109",
"5  c #533811",
"6  c #632205",
"7  c #652507",
"8  c #683C02",
"9  c #703107",
"0  c #7B3C0C",
"q  c #75390A",
"w  c #692C14",
"e  c #6A3618",
"r  c #72351A",
"t  c #74391A",
"y  c #6D3D21",
"u  c #5A4418",
"i  c #774200",
"p  c #7D4729",
"a  c #7D482B",
"s  c #7B4623",
"d  c #7F4B35",
"f  c #725039",
"g  c #786028",
"h  c #75736F",
"j  c #864A00",
"k  c #8D4D00",
"l  c #86470C",
"z  c #904F00",
"x  c #915202",
"c  c #995C0C",
"v  c #874B18",
"b  c #8D531C",
"n  c #92581A",
"m  c #9B6818",
"M  c #A0650E",
"N  c #A56A1B",
"B  c #A97218",
"V  c #844E22",
"C  c #8B592B",
"Z  c #905C25",
"A  c #935F29",
"S  c #835136",
"D  c #93602A",
"F  c #9A6927",
"G  c #9A6C33",
"H  c #847030",
"J  c #A06B26",
"K  c #AD7C2E",
"L  c #A97627",
"P  c #BF7C26",
"I  c #A27332",
"U  c #A5783B",
"Y  c #915F4B",
"T  c #9B6E4B",
"R  c #9D7152",
"E  c #A57644",
"W  c #A77B5B",
"Q  c #857F60",
"!  c #9A8339",
"~  c #B9892C",
"^  c #AB8037",
"/  c #B18539",
"(  c #BE9030",
")  c #B8933F",
"_  c #C2801C",
"`  c #D6932C",
"'  c #AE8C43",
"]  c #B78E46",
"[  c #BD934D",
"{  c #AF855A",
"}  c #B58D59",
"|  c #A89858",
" . c #9D8B69",
".. c #9C9674",
"X. c #AA8466",
"o. c #BD976B",
"O. c #B08B74",
"+. c #B69474",
"@. c #C09740",
"#. c #C19841",
"$. c #C5995E",
"%. c #C1A94C",
"&. c #CFAA48",
"*. c #C6A14A",
"=. c #D1AC49",
"-. c #D2A840",
";. c #D8B74E",
":. c #CEAC5C",
">. c #DFBD50",
",. c #D5B859",
"<. c #E2BE50",
"1. c #CEA16B",
"2. c #D1A368",
"3. c #C6A576",
"4. c #D9BD7B",
"5. c #DCC051",
"6. c #EDCF56",
"7. c #EDCF58",
"8. c #E1C454",
"9. c #EED058",
"0. c #F0D159",
"q. c #FBE05F",
"w. c #DEC068",
"e. c #E2C261",
"r. c #EECF60",
"t. c #EED36B",
"y. c #E2C979",
"u. c #EDDC7D",
"i. c #F2DB7D",
"p. c #FBE161",
"a. c #FFE76C",
"s. c #FFE86D",
"d. c #FEEA7A",
"f. c #FAE376",
"g. c #8C8C89",
"h. c #AC9C8D",
"j. c #ABA99F",
"k. c #BBB798",
"l. c #B1B0A7",
"z. c #C6AB88",
"x. c #DCB781",
"c. c #D3BE9A",
"v. c #D2BFAB",
"b. c #DACB9C",
"n. c #EFDB8A",
"m. c #EBDB9C",
"M. c #E2D197",
"N. c #F8E58B",
"B. c #FEEC88",
"V. c #FDE982",
"C. c #FEEF96",
"Z. c #FAEC9C",
"A. c #F5E596",
"S. c #FEF097",
"D. c #FFF198",
"F. c #DFCCA3",
"G. c #C3C0B4",
"H. c #ECDDA9",
"J. c #FCF1B3",
"K. c #FDF4BC",
"L. c #DFDEDC",
"P. c #E5D7C1",
"I. c #F7EFC0",
"U. c #F1E8CC",
"Y. c #FBF3C3",
"T. c #FAF3CA",
"R. c #FFF9CC",
"E. c #EBE8DF",
"W. c #FBF5D4",
"Q. c #FAF5DB",
"!. c #FAF5D7",
"~. c #EDECE8",
"^. c #FAF6E3",
"/. c #F5F4ED",
"(. c #FBF9EA",
"). c #FAF7E6",
"_. c None",
/* pixels */
"_._._._._._._._._._._._._._._._._._._._.",
"_._._._._._._._._._._._._._._._._._._._.",
"_._._._._._._._._._.L./././././.~._._._.",
"_._._._._._._._._./.(.).).).).).(.)._._.",
"_._._._._._._._.E.^.Q.Q.^.^.^.^.^.Q._._.",
"_._._._._._._.h.^.Q.Q.Q.Q.Q.Q.Q.Q.!._._.",
"_._._._._._.- v.Q.!.!.!.!.!.!.!.!.W._._.",
"_._._._._._.y P.W.W.W.W.W.W.W.W.W.W._._.",
"_._._._._.@ d U.T.T.T.T.c.X.X.+.z.c._._.",
"_._._._._.$ Y T.Y.Y.T.F.r , , 1 7 w _._.",
"_._._._._.: W T.Y.Y.Y.3., 1 1 1 6 _._._.",
"_._._._.. 7 o.Y.K.K.K. .# @ $ : > _._._.",
"_._._._.o 0 3.K.J.J.K.Q ; g.l.j.h _._._.",
"_._._._.% n x.K.J.J.J...G.R.K.K.I.k._._.",
"_._._._.* N x.H.m.m.m.b.H.m.m.m.m.M._._.",
"_._._._.- P 1.S p p p a a p p p p p _._.",
"_._._.  2 ` 2.s t t t t t t t t t t e _.",
"_._._.  5 ` $.C V V V V V V V V V V s _.",
"_._._.  5 _ } G D D D D Z Z D D D D C _.",
"_._._.  4 c { U I I I F v b U I I I G _.",
"_._._.  = l W ] / / / J l v } / / / ^ _.",
"_._._.  * 9 R *.@.#.#.F 0 r o.#.#.#.) _.",
"_._._.  & , T ,.&.&.=.g < w 3.=.&.=.*._.",
"_._._.  # , T e.>.>.8.H $ t 4.>.>.>.=._.",
"_._._.  o 6 E t.6.7.0.%.f O.n.6.7.9.5._.",
"_._._.  o q [ f.q.p.p.p.N.Z.a.q.p.p.8._.",
"_._._.  o n e.V.a.s.s.s.a.a.s.s.s.s.5._.",
"_._._.  O ) r.i.d.d.d.d.d.d.d.d.d.d._._.",
"_._._.  X %.<.,.B.B.B.B.B.B.B.B.B.u._._.",
"_._._._.  ! -.~ w.S.S.C.C.C.S.D.N.| _._.",
"_._._._.  u ( B N :.n.Z.Z.Z.A.y.' _._._.",
"_._._._.  + m M x x m L K K N c 2 _._._.",
"_._._._.    4 x x x k k k k k 8 _._._._.",
"_._._._._.    = i j k k j i 3 _._._._._.",
"_._._._._.      . + & & % . _._._._._._.",
"_._._._._._.              _._._._._._._.",
"_._._._._._._._.      _._._._._._._._._.",
"_._._._._._._._._._._._._._._._._._._._.",
"_._._._._._._._._._._._._._._._._._._._.",
"_._._._._._._._._._._._._._._._._._._._.",
"_._._._._._._._._._._._._._._._._._._._.",
"_._._._._._._._._._._._._._._._._._._._."
};
