/* XPM */
#pragma once
static xpm_row_t number7_20[] = {
/* columns rows colors chars-per-pixel */
"20 42 247 2 ",
"   c #000000",
".  c #040100",
"X  c #060200",
"o  c #070200",
"O  c #080100",
"+  c #080300",
"@  c #090301",
"#  c #0D0401",
"$  c #0F0901",
"%  c #0E0902",
"&  c #1D0A00",
"*  c #1B0D02",
"=  c #19160A",
"-  c #2C0D02",
";  c #320D01",
":  c #231101",
">  c #321100",
",  c #381301",
"<  c #311B00",
"1  c #3D2200",
"2  c #3E2200",
"3  c #3F2300",
"4  c #322209",
"5  c #401200",
"6  c #431D01",
"7  c #501905",
"8  c #511A05",
"9  c #521A05",
"0  c #531A05",
"q  c #541A05",
"w  c #551A05",
"e  c #5E1A02",
"r  c #621C02",
"t  c #601C05",
"y  c #641F05",
"u  c #641F06",
"i  c #402400",
"p  c #442600",
"a  c #4F2902",
"s  c #412408",
"d  c #492C0A",
"f  c #5E290D",
"g  c #593103",
"h  c #5B3203",
"j  c #433817",
"k  c #652100",
"l  c #642305",
"z  c #68260E",
"x  c #623300",
"c  c #753200",
"v  c #6E2E13",
"b  c #6F2F15",
"n  c #6F3015",
"m  c #6C3416",
"M  c #6F3913",
"N  c #703516",
"B  c #703617",
"V  c #713617",
"C  c #62420F",
"Z  c #7D4400",
"A  c #76490A",
"S  c #784F0F",
"D  c #644B16",
"F  c #67481F",
"G  c #784511",
"H  c #754914",
"J  c #75441D",
"K  c #794227",
"L  c #7C4725",
"P  c #734B20",
"I  c #7F462C",
"U  c #844101",
"Y  c #864700",
"T  c #824B04",
"R  c #8C4A01",
"E  c #894C00",
"W  c #8A4D00",
"Q  c #8E4D00",
"!  c #8F4E00",
"~  c #8E4F00",
"^  c #8F4F00",
"/  c #905000",
"(  c #824B21",
")  c #824C21",
"_  c #814C22",
"`  c #8F5C26",
"'  c #915E29",
"]  c #875634",
"[  c #885736",
"{  c #885836",
"}  c #9F6F2E",
"|  c #91732F",
" . c #926132",
".. c #9C6430",
"X. c #8D723B",
"o. c #9F7030",
"O. c #A36C23",
"+. c #AD7729",
"@. c #A07030",
"#. c #A97F36",
"$. c #895943",
"%. c #925E46",
"&. c #9B7157",
"*. c #9E7562",
"=. c #988036",
"-. c #AF8238",
";. c #AF8338",
":. c #AA8A3B",
">. c #AE893A",
",. c #B58739",
"<. c #B5883A",
"1. c #B5883B",
"2. c #D0973F",
"3. c #B58840",
"4. c #B58C46",
"5. c #BE9540",
"6. c #BF9640",
"7. c #BF9741",
"8. c #B18A55",
"9. c #BCAC58",
"0. c #AA8369",
"q. c #B3906A",
"w. c #BF976A",
"e. c #B18E78",
"r. c #BB9577",
"t. c #B99778",
"y. c #C29A57",
"u. c #CA9851",
"i. c #C69358",
"p. c #CDA745",
"a. c #CDA847",
"s. c #C3A64D",
"d. c #CEA948",
"f. c #DCBA4D",
"g. c #DCBA4F",
"h. c #C7A450",
"j. c #C19F7A",
"k. c #D2B16F",
"l. c #C6A47B",
"z. c #C2A07D",
"x. c #DAAE78",
"c. c #D8BD7E",
"v. c #DCC75B",
"b. c #E6C855",
"n. c #EBCD56",
"m. c #EBCD57",
"M. c #ECCD57",
"N. c #EAD059",
"B. c #FADF5F",
"V. c #FBDF5F",
"C. c #E4C86F",
"Z. c #EED363",
"A. c #FAE060",
"S. c #FFE768",
"D. c #FFE76A",
"F. c #FFE86B",
"G. c #FEE977",
"H. c #FEE978",
"J. c #FFEA78",
"K. c #BEB481",
"L. c #BDAB95",
"P. c #C1A280",
"I. c #C7A780",
"U. c #CBB086",
"Y. c #D7B286",
"T. c #D1B589",
"R. c #C5BE98",
"E. c #DFD59D",
"W. c #E0D48D",
"Q. c #F2DE99",
"!. c #F2DE9A",
"~. c #FBE984",
"^. c #FEEC86",
"/. c #F1E38C",
"(. c #FFEE8F",
"). c #FFEE90",
"_. c #FEEF94",
"`. c #FFEF99",
"'. c #FEF095",
"]. c #FCF09F",
"[. c #DEC4A2",
"{. c #DFCEA9",
"}. c #E0CFAB",
"|. c #E1D1AF",
" X c #E1DAB2",
".X c #E7D9B8",
"XX c #EFE5AE",
"oX c #F3E1A6",
"OX c #F4E6A4",
"+X c #F4E6A5",
"@X c #F4E6A6",
"#X c #FCF0A0",
"$X c #FDF1A1",
"%X c #F4E5B0",
"&X c #F9EEB7",
"*X c #F2E3BB",
"=X c #F5E9BB",
"-X c #F7EEBA",
";X c #FBF1B2",
":X c #FDF2B3",
">X c #FBF1B7",
",X c #FCF2B4",
"<X c #FCF1B7",
"1X c #FBF1BB",
"2X c #FBF1BC",
"3X c #FBF2BC",
"4X c #FDF4BE",
"5X c #EFE9C3",
"6X c #F4EBC4",
"7X c #F3EDCB",
"8X c #F6EECD",
"9X c #FAF2C1",
"0X c #FAF3C7",
"qX c #FBF3C7",
"wX c #FBF4C8",
"eX c #FDF5C9",
"rX c #FAF3CC",
"tX c #FAF4CD",
"yX c #FBF4CD",
"uX c #F4EED1",
"iX c #F4F0D7",
"pX c #FAF4D1",
"aX c #FAF4D2",
"sX c #FAF5D2",
"dX c #FCF6D3",
"fX c #FAF5D6",
"gX c #FAF5D7",
"hX c #F5F1DD",
"jX c #FAF5DC",
"kX c #FAF6DC",
"lX c #FEFADA",
"zX c #FCF8DD",
"xX c #EDECE7",
"cX c #EDECE8",
"vX c #EEEDE8",
"bX c #EFEEEA",
"nX c #F6F4E4",
"mX c #FAF6E1",
"MX c #FCF8E2",
"NX c #FCF9E7",
"BX c #F1F0EB",
"VX c #F3F2ED",
"CX c #F4F3EE",
"ZX c #FAF8E8",
"AX c #FCFAED",
"SX c #F6F5F0",
"DX c None",
/* pixels */
"DXDXDXDXDXDXDXDXDXDXDXDXDXDXDXDXDXDXDXDX",
"DXDXDXDXDXDXDXDXDXDXDXDXDXDXDXDXDXDXDXDX",
"DXDXDXDXDXDXL.bXxXxXxXxXbXbXbXBXVXSXCXDX",
"DXDXDXDXDXx I.AXZXZXZXZXZXZXZXZXZXZXnXDX",
"DXDXDXDXDXY l.NXmXmXmXmXmXmXmXmXmXmXhXDX",
"DXDXDXDXh R j.MXjXjXjXjXjXjXjXjXjXjXiXDX",
"DXDXDXDXh U t.zXgXgXgXgXgXgXgXgXgXgXuXDX",
"DXDXDXDXa c e.lXdXdXdXdXdXpXpXpXpXpX7XDX",
"DXDXDXDX6 k *.|.{.{.{.{.}.6XtXrXrXtX5XDX",
"DXDXDXDX, e z n b b b v I .XwX0X0X0X XDX",
"DXDXDXDX; t y y y y y r %.8X9X9X9X9XR.DX",
"DXDXDXDX- q q 0 0 0 0 l r.eX2X2X2X-XDXDX",
"DXDXDXDX. @ @ . . . # M [.4X>X>X,XXXDXDX",
"DXDXDXDXDX          * ..*X,X;X;X:XE.DXDX",
"DXDXDXDXDX          s i.=XOXOXOXOXK.DXDX",
"DXDXDXDXDXDX        H x.&.] [ [ { DXDXDX",
"DXDXDXDXDXDXDX    % +.Y.K V V V m DXDXDX",
"DXDXDXDXDXDXDX    4 2.z.) ( ( ) J DXDXDX",
"DXDXDXDXDXDXDX    C u.q.` ' ' ' P DXDXDX",
"DXDXDXDXDXDXDXDX  A w.8.} @.@.o.F DXDXDX",
"DXDXDXDXDXDXDXDX% G P.4.-.-.-.#.DXDXDXDX",
"DXDXDXDXDXDXDXDX: L U.5.5.5.5.>.DXDXDXDX",
"DXDXDXDXDXDXDX  > $.c.p.d.a.d.:.DXDXDXDX",
"DXDXDXDXDXDXDX  5 0.C.g.g.g.g.=.DXDXDXDX",
"DXDXDXDXDXDXDX@ f T.Z.n.n.M.b.DXDXDXDXDX",
"DXDXDXDXDXDXDX&  .Q.A.B.B.B.N.DXDXDXDXDX",
"DXDXDXDXDXDXDXd k.`.D.D.D.F.v.DXDXDXDXDX",
"DXDXDXDXDXDX  | Q._.G.H.H.H.9.DXDXDXDXDX",
"DXDXDXDXDXDX= s.oX(.^.^.^.~.DXDXDXDXDXDX",
"DXDXDXDXDXDXj h.%X'._._._./.DXDXDXDXDXDX",
"DXDXDXDXDXDXD y.&X].$X$X$XW.DXDXDXDXDXDX",
"DXDXDXDXDXDXS O.3.,.1.1.1.X.DXDXDXDXDXDX",
"DXDXDXDXDXDXT / ^ ^ ^ ^ Z DXDXDXDXDXDXDX",
"DXDXDXDXDX< E ^ ^ ^ ^ E DXDXDXDXDXDXDXDX",
"DXDXDXDXDXDXi 2 2 2 p 2 DXDXDXDXDXDXDXDX",
"DXDXDXDXDXDXDX    DXDXDXDXDXDXDXDXDXDXDX",
"DXDXDXDXDXDXDXDXDXDXDXDXDXDXDXDXDXDXDXDX",
"DXDXDXDXDXDXDXDXDXDXDXDXDXDXDXDXDXDXDXDX",
"DXDXDXDXDXDXDXDXDXDXDXDXDXDXDXDXDXDXDXDX",
"DXDXDXDXDXDXDXDXDXDXDXDXDXDXDXDXDXDXDXDX",
"DXDXDXDXDXDXDXDXDXDXDXDXDXDXDXDXDXDXDXDX",
"DXDXDXDXDXDXDXDXDXDXDXDXDXDXDXDXDXDXDXDX"
};
