/* XPM */
#pragma once
static xpm_row_t number8_20[] = {
/* columns rows colors chars-per-pixel */
"20 42 178 2 ",
"   c #000000",
".  c #0C0600",
"X  c #0E0800",
"o  c #110A02",
"O  c #180D00",
"+  c #1F1202",
"@  c #250D01",
"#  c #2D0C01",
"$  c #271600",
"%  c #281600",
"&  c #2E1C08",
"*  c #3A1504",
"=  c #29220E",
"-  c #3D230A",
";  c #420E00",
":  c #550E00",
">  c #461E04",
",  c #5D1B02",
"<  c #42220A",
"1  c #532000",
"2  c #5C2103",
"3  c #563000",
"4  c #57310C",
"5  c #5B2F1E",
"6  c #652605",
"7  c #693F05",
"8  c #79380A",
"9  c #642B10",
"0  c #692B11",
"q  c #733919",
"w  c #793B14",
"e  c #753C26",
"r  c #55461D",
"t  c #7A4400",
"y  c #794806",
"u  c #6A4919",
"i  c #785719",
"p  c #5B4F23",
"a  c #7D482A",
"s  c #7A4227",
"d  c #775627",
"f  c #7C6C32",
"g  c #7C7254",
"h  c #864A00",
"j  c #8D4E00",
"k  c #904E00",
"l  c #925202",
"z  c #975A09",
"x  c #8A4A14",
"c  c #945C1E",
"v  c #9B5617",
"b  c #A06510",
"n  c #A26A1B",
"m  c #A8651D",
"M  c #A87017",
"N  c #844E23",
"B  c #80482C",
"V  c #8A562E",
"C  c #945C21",
"Z  c #945E2B",
"A  c #824D33",
"S  c #8A5635",
"D  c #935D36",
"F  c #93612A",
"G  c #96662A",
"H  c #8D7B38",
"J  c #A66D21",
"K  c #B06F21",
"L  c #AD7C2E",
"P  c #A6742C",
"I  c #B37E22",
"U  c #A27332",
"Y  c #806B4F",
"T  c #996E4F",
"R  c #906E51",
"E  c #86705C",
"W  c #9E7456",
"Q  c #A16A41",
"!  c #B37D4C",
"~  c #B7872E",
"^  c #AA8037",
"/  c #B18539",
"(  c #B58C32",
")  c #BB943F",
"_  c #C8852C",
"`  c #D7912C",
"'  c #CE8E34",
"]  c #C0983F",
"[  c #C3973F",
"{  c #DC9932",
"}  c #E4A139",
"|  c #A3814F",
" . c #B68D49",
".. c #BD9643",
"X. c #B38C55",
"o. c #99826A",
"O. c #AB8465",
"+. c #B18D6F",
"@. c #AC8B70",
"#. c #B99671",
"$. c #C48E4C",
"%. c #C29942",
"&. c #CFAA49",
"*. c #CBA747",
"=. c #D2AC47",
"-. c #D1AC4A",
";. c #DCBB4F",
":. c #DEBD50",
">. c #E0BF52",
",. c #C79D6B",
"<. c #C4A163",
"1. c #D7A96D",
"2. c #CBB26A",
"3. c #C8A776",
"4. c #D8BA74",
"5. c #E8C758",
"6. c #EDCF58",
"7. c #E9CA57",
"8. c #EFD159",
"9. c #F2D85D",
"0. c #FBE05F",
"q. c #D7C666",
"w. c #DDC173",
"e. c #EED865",
"r. c #F5DC67",
"t. c #E3CB7B",
"y. c #EFD87E",
"u. c #ECD279",
"i. c #F2DC7E",
"p. c #FCE161",
"a. c #FFE76C",
"s. c #FFE86D",
"d. c #FFE871",
"f. c #FEEA7A",
"g. c #B79680",
"h. c #BC9E8B",
"j. c #BFA186",
"k. c #C9AD8B",
"l. c #C4A78E",
"z. c #C5BB8B",
"x. c #EAC98A",
"c. c #ECDB9D",
"v. c #E7D697",
"b. c #FEED88",
"n. c #F9E686",
"m. c #F3E394",
"M. c #FDEE95",
"N. c #F9EC9D",
"B. c #FEF097",
"V. c #FFF298",
"C. c #DEC3A1",
"Z. c #E8DBA2",
"A. c #EDDFB0",
"S. c #F7E7A4",
"D. c #ECE3B0",
"F. c #F0E9BC",
"G. c #F9EEBF",
"H. c #F9ECB1",
"J. c #FCF1B4",
"K. c #FBF2BC",
"L. c #DAD7D2",
"P. c #ECE7C9",
"I. c #F4EBC3",
"U. c #F2EBC9",
"Y. c #FBF3C3",
"T. c #FAF4CC",
"R. c #F5EFDD",
"E. c #FAF4D3",
"W. c #FDF8D4",
"Q. c #FAF5DB",
"!. c #F6F2DD",
"~. c #EDECE7",
"^. c #F0EEE8",
"/. c #FAF6E2",
"(. c #F6F5EE",
"). c #FBF8E9",
"_. c #FAF7E7",
"`. c None",
/* pixels */
"`.`.`.`.`.`.`.`.`.`.`.`.`.`.`.`.`.`.`.`.",
"`.`.`.`.`.`.`.`.`.`.`.`.`.`.`.`.`.`.`.`.",
"`.`.`.`.`.`.`.`.`.L.^.(.(.(.(.~.`.`.`.`.",
"`.`.`.`.`.`.`.`.^.)._._._._._._._.`.`.`.",
"`.`.`.`.`.`.`.L._././././././././.!.`.`.",
"`.`.`.`.`.`.E R.Q.Q.Q.Q.Q.Q.Q.Q.Q.Q.`.`.",
"`.`.`.`.`.`.@.Q.E.E.E.E.E.E.E.E.E.E.P.`.",
"`.`.`.`.`.1 g.W.E.E.E.T.U.T.E.E.E.E.U.`.",
"`.`.`.`.`., h.W.T.T.T.k.A +.T.T.T.T.I.`.",
"`.`.`.`.@ , l.T.Y.Y.T.W : S I.Y.Y.Y.F.`.",
"`.`.`.`.# 6 k.Y.Y.Y.Y.T , D I.Y.Y.Y.F.`.",
"`.`.`.`.* 8 3.Y.K.K.K.Y 6 Q I.K.K.K.D.`.",
"`.`.`.`.* x ,.K.J.J.J.g 6 ! G.J.J.J.Z.`.",
"`.`.`.`.< v $.H.J.J.J.z.O.C.K.J.J.J.z.`.",
"`.`.`.  - m _ x.c.c.c.Z.A.D.c.c.c.v.`.`.",
"`.`.`.  & K _ ' Z a a a a a a a V d `.`.",
"`.`.`.  o J ` } 1.A q q q q q q Z `.`.`.",
"`.`.`.    u { x.j.V N N N N N N V R `.`.",
"`.`.`.    o | k.F Z F F F F F F F F `.`.",
"`.`.`.    . o.X.U U U G x C U U U U G `.",
"`.`.`.    < #. ./ / / c 8 N  ./ / / ^ `.",
"`.`.`.  o 9 #.%.%.%...c 8 s <.%.%.%.) `.",
"`.`.`.  @ 9 3.-.&.&.&.u 2 e 2.=.&.-.*.`.",
"`.`.`.  # 0 3.>.:.:.:.r ; B w.;.:.:.;.`.",
"`.`.`.  * w 4.8.6.6.8.H 5 O.y.6.6.6.7.`.",
"`.`.`.  > C u.p.p.p.p.r.v.S.a.0.p.p.9.`.",
"`.`.`.  4 [ n.d.a.a.a.a.s.s.a.a.a.s.e.`.",
"`.`.`.  d 5.u.n.f.f.f.f.f.f.f.f.f.f.q.`.",
"`.`.`.  f 5.-.i.b.b.b.b.b.b.b.b.b.n.`.`.",
"`.`.`.  p =.~ %.n.V.B.M.M.M.B.V.M.2.`.`.",
"`.`.`.  = ( I b ~ w.m.N.N.N.m.t...`.`.`.",
"`.`.`.`.  i M z j l n L L L n z 7 `.`.`.",
"`.`.`.`.  + y l l l j j j k j t `.`.`.`.",
"`.`.`.`.    O 3 t h j j h t 3 `.`.`.`.`.",
"`.`.`.`.`.      X + $ % + X `.`.`.`.`.`.",
"`.`.`.`.`.`.              `.`.`.`.`.`.`.",
"`.`.`.`.`.`.`.        `.`.`.`.`.`.`.`.`.",
"`.`.`.`.`.`.`.`.`.`.`.`.`.`.`.`.`.`.`.`.",
"`.`.`.`.`.`.`.`.`.`.`.`.`.`.`.`.`.`.`.`.",
"`.`.`.`.`.`.`.`.`.`.`.`.`.`.`.`.`.`.`.`.",
"`.`.`.`.`.`.`.`.`.`.`.`.`.`.`.`.`.`.`.`.",
"`.`.`.`.`.`.`.`.`.`.`.`.`.`.`.`.`.`.`.`."
};
