/* XPM */

#pragma once
static xpm_row_t number9_20[] = {
/* columns rows colors chars-per-pixel */
"20 42 177 2 ",
"   c #000000",
".  c #0F0800",
"X  c #0E0300",
"o  c #140701",
"O  c #140B01",
"+  c #200800",
"@  c #390F00",
"#  c #231300",
"$  c #2C1402",
"%  c #2E1A00",
"&  c #3E1A06",
"*  c #381304",
"=  c #211A12",
"-  c #37250A",
";  c #451A00",
":  c #591100",
">  c #551C03",
",  c #5C1C04",
"<  c #621E03",
"1  c #4B270B",
"2  c #572B08",
"3  c #5C3300",
"4  c #55310E",
"5  c #593B12",
"6  c #632205",
"7  c #6C2906",
"8  c #692908",
"9  c #6A3F05",
"0  c #703006",
"q  c #77370A",
"w  c #7E3E0C",
"e  c #6B3617",
"r  c #743A19",
"t  c #7C3911",
"y  c #4A3C29",
"u  c #603D26",
"i  c #6B4005",
"p  c #744101",
"a  c #7C4500",
"s  c #614014",
"d  c #7C4114",
"f  c #795314",
"g  c #7C4729",
"h  c #7E492D",
"j  c #774523",
"k  c #775B2E",
"l  c #7F4B32",
"z  c #68513D",
"x  c #5C5C58",
"c  c #685C40",
"v  c #615A56",
"b  c #747269",
"n  c #844900",
"m  c #8D4D00",
"M  c #84490C",
"N  c #904F00",
"B  c #925101",
"V  c #96580B",
"C  c #864A15",
"Z  c #904D18",
"A  c #8E551E",
"S  c #9A5F10",
"D  c #A35F1D",
"F  c #A4660E",
"G  c #A46616",
"H  c #AC761F",
"J  c #844E22",
"K  c #875927",
"L  c #915E26",
"P  c #824F33",
"I  c #905F35",
"U  c #886A29",
"Y  c #93612A",
"T  c #9E6E2E",
"R  c #96662A",
"E  c #9C6B37",
"W  c #9F7834",
"Q  c #A56F20",
"!  c #AD7B2D",
"~  c #B57022",
"^  c #A37432",
"/  c #966849",
"(  c #9A7256",
")  c #A87C41",
"_  c #A77957",
"`  c #9C8237",
"'  c #AA8639",
"]  c #B28639",
"[  c #B18537",
"{  c #B1913E",
"}  c #CB8724",
"|  c #D8932C",
" . c #C68D38",
".. c #C0973F",
"X. c #E19C2D",
"o. c #A48F41",
"O. c #AF9941",
"+. c #BC9449",
"@. c #B49941",
"#. c #BD8D5D",
"$. c #BC9657",
"%. c #938F7D",
"&. c #A9836B",
"*. c #BF9F7D",
"=. c #B3917E",
"-. c #C19841",
";. c #C89D41",
":. c #D49F56",
">. c #CFAA48",
",. c #D0AB49",
"<. c #C9A658",
"1. c #DEBD50",
"2. c #E0BD59",
"3. c #CA9A61",
"4. c #C5B166",
"5. c #D8BA67",
"6. c #D2AB7A",
"7. c #EDCF58",
"8. c #EED058",
"9. c #F8DE5F",
"0. c #DBC968",
"q. c #E6C862",
"w. c #F4DE67",
"e. c #E6CE7E",
"r. c #FBE160",
"t. c #FFE76B",
"y. c #FFE86D",
"u. c #FEEA7A",
"i. c #FFEA77",
"p. c #9B9380",
"a. c #AF9483",
"s. c #C4A78B",
"d. c #CEBD8E",
"f. c #CAAF92",
"g. c #CEB394",
"h. c #D7BD97",
"j. c #D2BB98",
"k. c #DCC694",
"l. c #E3C289",
"z. c #ECD788",
"x. c #F4DF8E",
"c. c #E3C795",
"v. c #ECDB9C",
"b. c #FEEC88",
"n. c #FCE883",
"m. c #F9E797",
"M. c #FDED94",
"N. c #F4E498",
"B. c #FAEC9E",
"V. c #F5E697",
"C. c #FEF097",
"Z. c #FFF299",
"A. c #DFD8B0",
"S. c #D9D3B0",
"D. c #E7DDA7",
"F. c #EBDDA2",
"G. c #E4DBAC",
"H. c #E5D3B5",
"J. c #ECE2AD",
"K. c #F6ECAE",
"L. c #F2E7B9",
"P. c #FCF1B4",
"I. c #FCF2BC",
"U. c #CEC9C1",
"Y. c #D6D6D4",
"T. c #FBF3C3",
"R. c #FBF4CB",
"E. c #EBE5D2",
"W. c #FAF4D3",
"Q. c #FAF5DB",
"!. c #F6F0D8",
"~. c #EBEAE5",
"^. c #FAF6E2",
"/. c #F5F4ED",
"(. c #FBF9E9",
"). c #F8F5E6",
"_. c None",
/* pixels */
"_._._._._._._._._._._._._._._._._._._._.",
"_._._._._._._._._._._._._._._._._._._._.",
"_._._._._._._._._.Y./././././.~._._._._.",
"_._._._._._._._.~.(.(.).).).).(.)._._._.",
"_._._._._._._.U.(.^.^.^.^.^.^.^.^.E._._.",
"_._._._._._.z E.Q.Q.Q.Q.Q.Q.Q.Q.Q.!._._.",
"_._._._._._.( !.W.W.W.W.W.W.W.W.W.W._._.",
"_._._._._.; &.Q.W.W.W.W.W.W.W.W.W.W._._.",
"_._._._._.> =.W.R.R.R.s./ j.R.R.R.R.S._.",
"_._._._.o , s.R.T.T.L.P : _ R.T.T.T.A._.",
"_._._._.+ 8 g.T.T.T.L.g < _ T.T.T.T.G._.",
"_._._._.$ t h.T.I.I.J.u 7 _ T.I.I.I.G._.",
"_._._._.& Z k.I.P.P.J.y q #.I.P.P.P.D._.",
"_._._._.1 D c.P.P.P.K.c C 6.I.P.P.P.F._.",
"_._._.  4 ~ l.F.v.v.v.d.f.H.F.v.v.v.k._.",
"_._._.  5 } 3.P g g g h l h g g g g j _.",
"_._._.  e | :.g r r r r r r r r r r e _.",
"_._._.  s X. .I J J J J J J J J J J j _.",
"_._._.  5 } G E Y Y Y Y Y L Y Y Y Y K _.",
"_._._.  - F V A T ^ ^ ^ T E ) ^ ^ ^ R _.",
"_._._.  O M M q d L R Y C / $.[ ] ] W _.",
"_._._.    2 w 7 6 < 6 8 0 / <...-.-.' _.",
"_._._._.  O 2 8 6 < , & > ( 5.>.,.,.{ _.",
"_._._._.    o * * @ + X > *.q.1.1.1.@._.",
"_._._._.    = p.%.b x v a.v.8.7.8.7.O._.",
"_._._._.    k x.i.n.b.M.b.t.r.r.r.9._._.",
"_._._._.  - <.M.y.t.t.t.t.y.y.y.y.w._._.",
"_._._._.  U q.m.u.u.u.u.u.u.u.u.u.0._._.",
"_._._._.  o.2.N.b.b.b.b.b.b.b.b.n._._._.",
"_._._._.  ` ;.v.Z.C.M.M.M.C.Z.M.4._._._.",
"_._._._.  U H +.5.z.V.B.B.V.e.+._._._._.",
"_._._._.  f V m B S Q ! ! H S 9 _._._._.",
"_._._._._.i B B B m m m m m p _._._._._.",
"_._._._._.% 3 p n m m n a 3 _._._._._._.",
"_._._._._.    X O # $ # . _._._._._._._.",
"_._._._._._.            _._._._._._._._.",
"_._._._._._._._.    _._._._._._._._._._.",
"_._._._._._._._._._._._._._._._._._._._.",
"_._._._._._._._._._._._._._._._._._._._.",
"_._._._._._._._._._._._._._._._._._._._.",
"_._._._._._._._._._._._._._._._._._._._.",
"_._._._._._._._._._._._._._._._._._._._."
};
