/* XPM */
static xpm_row_t clockXPM100[] = {
/* columns rows colors chars-per-pixel */
"100 57 254 2 ",
"   c white",
".  c #FBFBFB",
"X  c #E7E7E7",
"o  c gray88",
"O  c #E2E2E2",
"+  c gray96",
"@  c #FDFDFD",
"#  c #A4A4A4",
"$  c gray21",
"%  c #2A2A2A",
"&  c gray17",
"*  c #6D6D6D",
"=  c #ECECEC",
"-  c gray95",
";  c #494949",
":  c black",
">  c #111111",
",  c gray75",
"<  c #F9F9F9",
"1  c #A2A2A2",
"2  c gray51",
"3  c #838383",
"4  c #898989",
"5  c #DDDDDD",
"6  c #FEFEFE",
"7  c gray81",
"8  c #B4B3B4",
"9  c #9D9D9D",
"0  c gray62",
"q  c #9F9F9F",
"w  c gray67",
"e  c #C3C3C3",
"r  c #CACACA",
"t  c gray50",
"y  c #414141",
"u  c #1D1D1D",
"i  c gray5",
"p  c #070707",
"a  c #060606",
"s  c gray2",
"d  c gray4",
"f  c gray8",
"g  c gray19",
"h  c #646464",
"j  c #AEAEAE",
"k  c #D8D8D8",
"l  c #717171",
"z  c #1E1E1E",
"x  c #010101",
"c  c #0E0E0E",
"v  c gray29",
"b  c gray70",
"n  c #F8F8F8",
"m  c #B1B1B1",
"M  c #343434",
"N  c gray1",
"B  c #161616",
"V  c #313131",
"C  c #444444",
"Z  c #484848",
"A  c #3A3A3A",
"S  c #202020",
"D  c gray3",
"F  c #7E7E7E",
"G  c gray92",
"H  c gray99",
"J  c #A0A0A0",
"K  c gray11",
"L  c #868686",
"P  c gray89",
"I  c #EFEFEF",
"U  c #F1F1F1",
"Y  c #EAEAEA",
"T  c LightGray",
"R  c gray63",
"E  c #555555",
"W  c gray7",
"Q  c #AAAAAA",
"!  c gray10",
"~  c #1B1B1B",
"^  c #848484",
"/  c #E1E1E1",
"(  c #F3F3F3",
")  c #AFAFAF",
"_  c gray24",
"`  c #020102",
"'  c #040404",
"]  c DimGray",
"[  c #CDCDCD",
"{  c gray16",
"}  c gray69",
"|  c gray86",
" . c gray35",
".. c #090909",
"X. c #8E8E8E",
"o. c gray37",
"O. c #212021",
"+. c #B6B6B6",
"@. c #B0AFB0",
"#. c #828182",
"$. c gray57",
"%. c #E9E9E9",
"&. c #E3E4E3",
"*. c #535353",
"=. c #232323",
"-. c #B4B4B4",
";. c #0B0B0B",
":. c #959595",
">. c #FEFDFE",
",. c gray36",
"<. c gray82",
"1. c #D2D2D2",
"2. c #2F2F2F",
"3. c gray42",
"4. c gray97",
"5. c #5F5F5F",
"6. c #4E4E4E",
"7. c gray93",
"8. c #DFDFDF",
"9. c #909090",
"0. c gray55",
"q. c #DADADA",
"w. c #979797",
"e. c gray13",
"r. c #D0D0D0",
"t. c gray84",
"y. c gray14",
"u. c #0C0C0C",
"i. c gray66",
"p. c gray94",
"a. c #5B5B5B",
"s. c gray31",
"d. c #929292",
"f. c #A9A9A9",
"g. c #D5D5D5",
"h. c gray12",
"j. c gray47",
"k. c #838283",
"l. c #5D5D5D",
"z. c gray22",
"x. c #ACACAC",
"c. c gray49",
"v. c gray79",
"b. c gray40",
"n. c #626262",
"m. c #C0C0C0",
"M. c gray9",
"N. c #020202",
"B. c #181818",
"V. c gray6",
"C. c #C8C8C8",
"Z. c gray15",
"A. c #606060",
"S. c gray98",
"D. c #C6C6C6",
"F. c gray77",
"G. c #CECECE",
"H. c #929392",
"J. c #252525",
"K. c gray39",
"L. c #272727",
"P. c #8B8B8B",
"I. c #131313",
"U. c #8D8D8D",
"Y. c gray91",
"T. c #323232",
"R. c gray68",
"E. c #C1C1C1",
"W. c gray65",
"Q. c #818181",
"!. c gray23",
"~. c #BBBBBB",
"^. c #191919",
"/. c gray45",
"(. c gray87",
"). c gray83",
"_. c #A7A7A7",
"`. c #989898",
"'. c #B5B4B5",
"]. c gray61",
"[. c #B7B7B7",
"{. c #D7D7D7",
"}. c gray56",
"|. c #2D2D2D",
" X c gray",
".X c #9B9B9B",
"XX c #CBCBCB",
"oX c gray27",
"OX c gray90",
"+X c #151515",
"@X c gray32",
"#X c #5A595A",
"$X c #F4F4F4",
"%X c #282828",
"&X c gray85",
"*X c #3F3F3F",
"=X c #4B4B4B",
"-X c #505050",
";X c #373737",
":X c #7B7B7B",
">X c #6F6F6F",
",X c gray25",
"<X c #515151",
"1X c #7C7C7C",
"2X c #C0BFC0",
"3X c gray30",
"4X c #353535",
"5X c #E6E6E6",
"6X c #888888",
"7X c #BCBCBC",
"8X c gray54",
"9X c #8B8A8B",
"0X c #3C3C3C",
"qX c gray58",
"wX c gray20",
"eX c gray38",
"rX c #434343",
"tX c #5A5A5A",
"yX c #939393",
"uX c #6A6A6A",
"iX c #656565",
"pX c gray34",
"aX c #F6F6F6",
"sX c #676767",
"dX c #A5A5A5",
"fX c gray52",
"gX c #393939",
"hX c #EEEEEE",
"jX c #4C4C4C",
"kX c gray44",
"lX c #101010",
"zX c #E4E4E4",
"xX c gray26",
"cX c #3E3E3E",
"vX c #B2B2B2",
"bX c #9D9C9D",
"nX c #565656",
"mX c #222222",
"MX c #252425",
"NX c #B9B9B9",
"BX c gray74",
"VX c #C6C5C6",
"CX c gray60",
"ZX c #777777",
"AX c gainsboro",
"SX c gray64",
"DX c #686868",
"FX c #808080",
"GX c #585858",
"HX c gray33",
"JX c #2C2C2C",
"KX c gray43",
"LX c gray76",
"PX c gray71",
/* pixels */
"                                                                                                                                                                                                        ",
"                                                      . X o o o o o o o o o o o o o o o o o o o o o o o o o o o o o o o o o o o o o o o o o O +                                                         ",
"                                                    @ # $ % % % % % % % % % % % % % % % % % % % % % % % % % % % % % % % % % % % % % % % % % & * =                                                       ",
"                                                    - ; : : : : : : : : : : : : : : : : : : : : : : : : : : : : : : : : : : : : : : : : : : : > ,                                                       ",
"                                                    < 1 2 3 3 3 3 3 3 3 3 3 3 3 3 3 3 3 3 3 3 3 3 3 3 3 3 3 3 3 3 3 3 3 3 3 3 3 3 3 3 3 3 3 3 4 5                                                       ",
"                      6 = 7 8 1 9 9 9 9 9 9 9 9 9 9 9 9 0 0 0 0 0 0 0 0 0 0 0 0 0 0 0 0 0 0 0 0 0 0 0 0 0 0 0 0 0 0 0 0 0 0 0 0 0 0 0 0 0 0 0 0 9 9 9 9 9 9 9 9 9 9 9 q w e O <                         ",
"                  < r t y u i p a a s s s s s s s s s s s s s s s a s s a a s s a a s s a s s s a s s a a s s a a s s a s s a a s s a a s s a s s s s s s s s s s s s a d f g h j =                     ",
"                k l z x : : : : : : : : : : : : : : : : : : : : : : : : : : : : : : : : : : : : : : : : : : : : : : : : : : : : : : : : : : : : : : : : : : : : : : : : : : : : c v b n                 ",
"            . m M x : : N B V C v v v v v v v v v v v v v v v v v v v v v v v v v v v v v v v v v v v v v v v v v v v v v v v v v v v v v v v v v v v v v v v v v v v Z A S D : : : B F G               ",
"          H J K : : s $ L e P I - - - - - - - - - - - - - - - - - - - - - - - - - - - - - - - - - - - - - - - - - - - - - - - - - - - - - - - - - - - - - - - - - - - U Y T R E W : : a h X             ",
"        6 Q ! : : ~ ^ /                                                                                                                                                       ( ) _ ` : ' ] I           ",
"        [ & : : { } .                                                                                                                                                             |  .N : ..X.H         ",
"      ( o.: : O.+.                . @.#.3 3 3 3 3 3 3 3 3 3 3 3 3 3 3 3 3 3 3 3 3 3 3 3 3 3 3 3 3 3 3 3 3 3 3 3 3 3 3 3 3 3 3 3 3 3 3 3 3 3 3 3 3 3 3 3 3 3 3 2 $.%.                &.*.: : =.r         ",
"      -.W : ;.:.>.                n ,.: : : : : : : : : : : : : : : : : : : : : : : : : : : : : : : : : : : : : : : : : : : : : : : : : : : : : : : : : : : : : K <.                  1.2.: : 3.n       ",
"    4.5.: : 6.7.      8.9.0.q.    n ,.: : : : : : : : : : : : : : : : : : : : : : : : : : : : : : : : : : : : : : : : : : : : : : : : : : : : : : : : : : : : : u 1.                    w.D : e.r.      ",
"    t.y.: u.i.      p.a.x : s.Y   n ,.: : : : : : : : : : : : : : : : : : : : : : : : : : : : : : : : : : : : : : : : : : : : : : : : : : : : : : : : : : : : : u 1.                    P $ : ' d.      ",
"    f.d : V O       g.h.: : B r   n ,.: : : : : : : : : : : : : : : : : : : : : : : : : : : : : : : : : : : : : : : : : : : : : : : : : : : : : : : : : : : : : u 1.                    @ j.: : a.4.    ",
"    k.: : l.4.      %.C : : z./   n ,.: : : : : : : : : : : : : : : : : : : : : : : : : : : : : : : : : : : : : : : : : : : : : : : : : : : : : : : : : : : : : u 1.                      x.d : z.%.    ",
"  . ] : : c.          v.b.n.m.6   n ,.: : : : : : : N M.K ~ K B N.: : ..K K K K K K K K ! s : : : : : : : i u K ~ ~ ~ K B.N : : : : : V.~ ~ ~ ! ..: : : : : : : u 1.                      C.B : Z.|     ",
"  < A.: N.0.            . S.      n ,.: : : : : : N. .D.r.r.r.F.E x : B.:.<.r.r.r.r.r.G.H.z.N.: : : : : : J.R <.r.r.r.r.v.K.' : : : L.i.<.7 7 7 P.I.: : : : : : u 1.                      T z : h.g.    ",
"  < A.: N.U.          @ Y.X H     n ,.: : : : : N T.R.          w V N : $ C.          E.W.Q.N : : : : : : x !.D.          ~.!.s : ^./.U         (. .c : : : : : u 1.                      ).h.: h.).    ",
"  < A.: N.U.        @ _.A $ 9 S.  n ,.: : : : : s.[ `.+.t.g.t.'.].[ 6.: : M [.{.g.t.b 0 U }.N.: : : : : : : : |.w t.g.t. X.Xr.o.h.R.-.].1.g.t.XXw.C.U.u.: : : : u 1.                      ).z : h.).    ",
"  < A.: N.U.        / V : : Z.{.  n ,.: : : : s ].  o oXz S z 6.OX  9 a : : +Xe.S u @X%.  X.N.: : : : : : : : : > S S z y q.  R.#X$XH 2 h.S h.L.)   8.%X: : : : u 1.                      ).z : h.).    ",
"  < A.: N.U.        &X=.: : ^.G.  n ,.: : : : a q   I *X: : : =X(   R p : : : : : : -X+   X.N.: : : : : : : : : : : : : ;XY   } l.$X  U.: : : V.m.  / & : : : : u 1.                      ).z : h.).    ",
"  < A.: N.U.        4.:XW V.>X(   n ,.: : : : a q   I ,X: : : =X(   J a : : : : : : <X+   X.N.N @XL 1X=.: : : : : : : : z.Y   } l.$X  U.N.: : > 2X  o % : : : : u 1.                      ).z : h.).    ",
"  < A.: N.U.          -  X~.I     n ,.: : : : a q   7._ : : : Z U   J a : : : : : : 3X$X  X.N.a J   $XoX: : : : : N.N.: 4X5X  } l.$X  6XN.: : V.7X  o % : : : : u 1.                      ).z : h.).    ",
"  < A.: N.U.                      n ,.: : : : a J X F W : : : B ^ %.1 p : : : : : : B.8XG }.N.s 9XO <.0X: x : K /.:.qXqX9.1 O } 5.= } wX: : : N @Xr (.& : : : : u 1.                      ).z : h.).    ",
"  < A.: N.U.                      n ,.: : : : a eXrX' : : : : : ' oXn.a : : : : : : : a =XtXN x B.L.y.d : x _  XH         g.yXuXC iXW : : : : : : e.>XS : : : : u 1.                      ).z : h.).    ",
"  < A.: N.U.                      n ,.: : : : a o.=Xu.: : : : : i 3XA.a : : : : : : : V.@XpXN : I.h.K D : x A f.Y 4.aX4.I F.qX] y sXu x : : : : ' |.>Xh.: : : : u 1.                      ).z : h.).    ",
"  < A.: N.U.                      n ,.: : : : a J p.J z : : : y.dXU 1 p : : : : : : L.f.- }.N.s fX&Xr gX: : : i _ @X<X-Xo.x.G ) o.hXv.jX: : : p kX| (.& : : : : u 1.                      ).z : h.).    ",
"  < A.: N.U.                      n ,.: : : : a 0   p.,X: : : =X+   R p : : : : : : <X4.  X.N.a R   $XoX: : : : : : : : $ G   ) ,.$X  U.N.: : > m.  o % : : : : u 1.                      ).z : h.).    ",
"  < A.: N.U.                      n ,.: : : : a q   hX,X: : : =X(   R p : : : : : : <X+   X.N.N tXd.6XL.: : : : : : : : z.Y   ) l.$X  0.N.: : > m.  o % : : : : u 1.                      ).z : h.).    ",
"  < A.: N.U.                      n ,.: : : : a q   I ,X: : : =X(   R p : : : : : : <X+   X.N.: : x x : : : : : : : : : z.G   ) l.$X  0.: : : lXm.  o % : : : : u 1.                      ).z : h.).    ",
"  < A.: N.U.                      n ,.: : : : a 0   zXxX+XB.+XjX%.  J a : : : : : : s.+   X.N.: : : : : : : : : ;.B.M.+XcX8.  ) a.+   2 B M.B S vX  o { : : : : u 1.                      ).z : h.).    ",
"  < A.: N.U.                      n ,.: : : : :  .k bXw XXr XXQ R {.nX: : : : : : : mX~.  X.N.: : : : : : : : =.9 r v.XXb 0 q.b.MXNXBX:.VXv.v. Xd.<.CXV.: : : : u 1.                      ).z : h.).    ",
"  < A.: N.U.                      n ,.: : : : : a !.w           Q !.s : : : : : : : : |.m.}.N : : : : : : : V ~.          NXC D : mXZXhX        q.5.+X: : : : : u 1.                      ).h.: h.).    ",
"  < A.: N.0.                      n ,.: : : : : : N.h 1.AX| AX<.A.N.: : : : : : : : : : V nX' : : : : : : =.SX| AXAXAXAXt.>Xa : : : 2.+.5 AXAXAXCXM.: : : : : : u 1.                      T z : S g.    ",
"  . DX: : FX                      n ,.: : : : : : : s S Z.J.Z.h.' : : : : : : : : : : : : a x : : : : : : lXZ.J.J.Z.Z.Z.e.a : : : : : B Z.Z.Z.J.c : : : : : : : u 1.                      v.M.: J.q.    ",
"    FX: : eX<                     n ,.: : : : : : : : : : : : : : : : : : : : : : : : : : : : : : : : : : : : : : : : : : : : : : : : : : : : : : : : : : : : : u 1.                      ) ;.: $ Y.    ",
"    dXD : 4XOX                    n ,.: : : : : : : : : : : : : : : : : : : : : : : : : : : : : : : : : : : : : : : : : : : : : : : : : : : : : : : : : : : : : u 1.                    6 c.: : GXaX    ",
"    1.S : c )                     n ,.: : : : : : : : : : : : : : : : : : : : : : : : : : : : : : : : : : : : : : : : : : : : : : : : : : : : : : : : : : : : : u 1.                    5X!.: N U.      ",
"    +  .: : E U                   n ,.: : : : : : : : : : : : : : : : : : : : : : : : : : : : : : : : : : : : : : : : : : : : : : : : : : : : : : : : : : : : : u 1.                    0 d : u XX      ",
"      R.c : c J                   n tX: : : : : : : : : : : : : : : : : : : : : : : : : : : : : : : : : : : : : : : : : : : : : : : : : : : : : : : : : : : : : ! <.                  q.$ : : K.aX      ",
"      I E : : %XE.                . # kXl l l l l l l l l l l l l l l l l l l l l l l l l l l l l l l l l l l l l l l l l l l l l l l l l l l l l l l l l l l kXQ.OX                Y o.x : z e         ",
"        F.y.: : T.BX6               6 @ @ @ @ @ @ @ @ @ @ @ @ @ @ @ @ @ @ @ @ @ @ @ @ @ @ @ @ @ @ @ @ @ @ @ @ @ @ @ @ @ @ @ @ @ @ @ @ @ @ @ @ @ @ @ @ @ @ @ @ @ @ 6               zXb.s : a ^ S.        ",
"        @ q I.: : =.d.Y.                                                                                                                                                      n BX; N : x o.G           ",
"          < d.+X: : ..rXw.<.= + n n n n n n n n n n n n n n n n n n n n n n n n n n n n n n n n n n n n n n n n n n n n n n n n n n n n n n n n n n n n n n n n n n n 4.U 8.m h ^.: : N pXo             ",
"            < SX% : : : a h.cXHXa.a.a.a.a.a.a.a.a.a.a.a.a.a.a.a.a.a.a.a.a.a.a.a.a.a.a.a.a.a.a.a.a.a.a.a.a.a.a.a.a.a.a.a.a.a.a.a.a.a.a.a.a.a.a.a.a.a.a.a.a.a.a.a.a.a.a.GXZ JXc : : : V.>XzX              ",
"              @ [ n.B : : : : : : : : : : : : : : : : : : : : : : : : : : : : : : : : : : : : : : : : : : : : : : : : : : : : : : : : : : : : : : : : : : : : : : : : : : : : : .._ W.(                 ",
"                  $X7XKXwX+XD N N.x x x x x x x x x x x x x x x x x x x x x x x x x x x x x x x x x x x x x x x x x x x x x x x x x x x x x x x x x x x x x x x x x x N.s c y.HX0 zX                    ",
"                      S.P LXdXyXP.0.X.X.X.X.X.X.X.X.X.X.X.X.X.X.X.X.X.X.X.X.X.X.X.X.X.X.X.X.X.X.X.X.X.X.X.X.X.X.X.X.X.X.X.X.X.X.X.X.X.X.X.X.X.X.X.X.X.X.X.X.X.X.X.U.P.X.].PX{.(                         ",
"                                  k m.E.E.E.E.E.E.E.E.E.E.E.E.E.E.E.E.E.E.E.E.E.E.E.E.E.E.E.E.E.E.E.E.E.E.E.E.E.E.E.E.E.E.E.E.E.E.E.E.E.E.E.E.E.E.E.E.E.E.E.E.E.E.C.+                                   ",
"                                6 fX> > W W W W W W W W W W W W W W W W W W W W W W W W W W W W W W W W W W W W W W W W W W W W W W W W W W W W W W W W W W W W V.y 5X                                  ",
"                                  Q p : : : : : : : : : : : : : : : : : : : : : : : : : : : : : : : : : : : : : : : : : : : : : : : : : : : : : : : : : : : : : : a.4.                                  ",
"                                  q.HX*X,X,X,X,X,X,X,X,X,X,X,X,X,X,X,X,X,X,X,X,X,X,X,X,X,X,X,X,X,X,X,X,X,X,X,X,X,X,X,X,X,X,X,X,X,X,X,X,X,X,X,X,X,X,X,X,X,X,X,X,Xy #                                     ",
"                                  H U hXhXhXhXhXhXhXhXhXhXhXhXhXhXhXhXhXhXhXhXhXhXhXhXhXhXhXhXhXhXhXhXhXhXhXhXhXhXhXhXhXhXhXhXhXhXhXhXhXhXhXhXhXhXhXhXhXhXhXhXhXhXn                                     ",
"                                                                                                                                                                                                        "
};
